%TF.GenerationSoftware,KiCad,Pcbnew,7.0.10-1.fc38*%
%TF.CreationDate,2024-02-26T14:13:32+00:00*%
%TF.ProjectId,desk-light,6465736b-2d6c-4696-9768-742e6b696361,rev?*%
%TF.SameCoordinates,Original*%
%TF.FileFunction,Copper,L2,Bot*%
%TF.FilePolarity,Positive*%
%FSLAX46Y46*%
G04 Gerber Fmt 4.6, Leading zero omitted, Abs format (unit mm)*
G04 Created by KiCad (PCBNEW 7.0.10-1.fc38) date 2024-02-26 14:13:32*
%MOMM*%
%LPD*%
G01*
G04 APERTURE LIST*
G04 Aperture macros list*
%AMRoundRect*
0 Rectangle with rounded corners*
0 $1 Rounding radius*
0 $2 $3 $4 $5 $6 $7 $8 $9 X,Y pos of 4 corners*
0 Add a 4 corners polygon primitive as box body*
4,1,4,$2,$3,$4,$5,$6,$7,$8,$9,$2,$3,0*
0 Add four circle primitives for the rounded corners*
1,1,$1+$1,$2,$3*
1,1,$1+$1,$4,$5*
1,1,$1+$1,$6,$7*
1,1,$1+$1,$8,$9*
0 Add four rect primitives between the rounded corners*
20,1,$1+$1,$2,$3,$4,$5,0*
20,1,$1+$1,$4,$5,$6,$7,0*
20,1,$1+$1,$6,$7,$8,$9,0*
20,1,$1+$1,$8,$9,$2,$3,0*%
G04 Aperture macros list end*
%TA.AperFunction,SMDPad,CuDef*%
%ADD10RoundRect,0.120000X0.630000X-0.120000X0.630000X0.120000X-0.630000X0.120000X-0.630000X-0.120000X0*%
%TD*%
%TA.AperFunction,SMDPad,CuDef*%
%ADD11RoundRect,0.250000X0.950000X-0.250000X0.950000X0.250000X-0.950000X0.250000X-0.950000X-0.250000X0*%
%TD*%
%TA.AperFunction,ComponentPad*%
%ADD12RoundRect,0.250000X0.625000X-0.350000X0.625000X0.350000X-0.625000X0.350000X-0.625000X-0.350000X0*%
%TD*%
%TA.AperFunction,ComponentPad*%
%ADD13O,1.750000X1.200000*%
%TD*%
%TA.AperFunction,ComponentPad*%
%ADD14RoundRect,0.250000X0.350000X0.625000X-0.350000X0.625000X-0.350000X-0.625000X0.350000X-0.625000X0*%
%TD*%
%TA.AperFunction,ComponentPad*%
%ADD15O,1.200000X1.750000*%
%TD*%
%TA.AperFunction,ComponentPad*%
%ADD16C,0.762000*%
%TD*%
%TA.AperFunction,ComponentPad*%
%ADD17O,1.117600X1.701800*%
%TD*%
%TA.AperFunction,ComponentPad*%
%ADD18C,3.800000*%
%TD*%
%TA.AperFunction,ViaPad*%
%ADD19C,1.000000*%
%TD*%
%TA.AperFunction,ViaPad*%
%ADD20C,0.600000*%
%TD*%
%TA.AperFunction,Conductor*%
%ADD21C,0.400000*%
%TD*%
G04 APERTURE END LIST*
D10*
%TO.P,D4,1,K*%
%TO.N,LED_OUT*%
X155640000Y-112890403D03*
%TO.P,D4,2,A*%
%TO.N,LED_IN*%
X155640000Y-110570403D03*
D11*
%TO.P,D4,3,PAD*%
%TO.N,LED_OUT*%
X155640000Y-111730403D03*
%TD*%
D12*
%TO.P,J2,1,Pin_1*%
%TO.N,Net-(J2-Pin_1)*%
X103900000Y-114880000D03*
D13*
%TO.P,J2,2,Pin_2*%
%TO.N,GND*%
X103900000Y-112880000D03*
%TD*%
D14*
%TO.P,J3,1,Pin_1*%
%TO.N,+5V*%
X127230000Y-118810000D03*
D15*
%TO.P,J3,2,Pin_2*%
%TO.N,Net-(J2-Pin_1)*%
X125230000Y-118810000D03*
%TD*%
D10*
%TO.P,D3,1,K*%
%TO.N,LED_OUT*%
X172505000Y-112890403D03*
%TO.P,D3,2,A*%
%TO.N,LED_IN*%
X172505000Y-110570403D03*
D11*
%TO.P,D3,3,PAD*%
%TO.N,LED_OUT*%
X172505000Y-111730403D03*
%TD*%
D10*
%TO.P,D2,1,K*%
%TO.N,LED_OUT*%
X189370000Y-112890403D03*
%TO.P,D2,2,A*%
%TO.N,LED_IN*%
X189370000Y-110570403D03*
D11*
%TO.P,D2,3,PAD*%
%TO.N,LED_OUT*%
X189370000Y-111730403D03*
%TD*%
D16*
%TO.P,J1,13*%
%TO.N,N/C*%
X115840000Y-102210000D03*
D17*
%TO.P,J1,8,PAD*%
%TO.N,GND*%
X115840000Y-102210000D03*
%TO.P,J1,7,PAD*%
X115840000Y-106010000D03*
%TO.P,J1,9,PAD*%
X107199996Y-106010000D03*
%TO.P,J1,10,PAD*%
X107199996Y-102210000D03*
%TD*%
D18*
%TO.P,H4,1*%
%TO.N,N/C*%
X197000000Y-122000000D03*
%TD*%
%TO.P,H3,1*%
%TO.N,N/C*%
X197000000Y-103000000D03*
%TD*%
%TO.P,H2,1*%
%TO.N,N/C*%
X103000000Y-122000000D03*
%TD*%
%TO.P,H1,1*%
%TO.N,N/C*%
X103000000Y-103000000D03*
%TD*%
D19*
%TO.N,LED_OUT*%
X183730000Y-113350000D03*
X184490000Y-116570000D03*
X180240000Y-117030000D03*
X176420000Y-116760000D03*
X178330000Y-113120000D03*
X179710000Y-109830000D03*
X183150000Y-110020000D03*
X184220000Y-107380000D03*
X178520000Y-107000000D03*
X167620000Y-111100000D03*
X165890000Y-116910000D03*
X159770000Y-117410000D03*
X163560000Y-114500000D03*
X164060000Y-110370000D03*
X164210000Y-107380000D03*
X151710000Y-119400000D03*
%TO.N,LED_IN*%
X150400000Y-104330000D03*
%TO.N,GND*%
X108430000Y-109930000D03*
X112540000Y-119000000D03*
%TO.N,+5V*%
X124190000Y-106120000D03*
X134050000Y-106880000D03*
%TO.N,GND*%
X134070000Y-108740000D03*
D20*
X140780000Y-108950000D03*
X139670000Y-108950000D03*
D19*
X146180000Y-111930000D03*
X143530000Y-111830000D03*
X140220000Y-105580000D03*
X104140001Y-109150006D03*
X118460001Y-109500006D03*
X109300001Y-115770006D03*
X114650001Y-115840006D03*
%TD*%
D21*
%TO.N,LED_OUT*%
X151710000Y-119400000D02*
X152060000Y-119400000D01*
X152060000Y-119400000D02*
X155640000Y-115820000D01*
X155640000Y-112890403D02*
X155640000Y-115820000D01*
X168270000Y-119400000D02*
X153450000Y-119400000D01*
X153450000Y-119400000D02*
X151710000Y-119400000D01*
X172505000Y-116205000D02*
X172520000Y-116220000D01*
X172505000Y-112890403D02*
X172505000Y-116205000D01*
X185440000Y-119400000D02*
X168270000Y-119400000D01*
X172520000Y-116220000D02*
X169340000Y-119400000D01*
X169340000Y-119400000D02*
X168270000Y-119400000D01*
X189370000Y-115450000D02*
X189380000Y-115460000D01*
X189370000Y-112890403D02*
X189370000Y-115450000D01*
X189380000Y-115460000D02*
X185440000Y-119400000D01*
%TO.N,LED_IN*%
X150400000Y-104330000D02*
X152260000Y-104330000D01*
X152260000Y-104330000D02*
X155640000Y-107710000D01*
X168190000Y-104330000D02*
X152030000Y-104330000D01*
X155640000Y-110570403D02*
X155640000Y-107710000D01*
X152030000Y-104330000D02*
X150400000Y-104330000D01*
X152380000Y-104330000D02*
X152030000Y-104330000D01*
X172505000Y-107195000D02*
X172510000Y-107190000D01*
X172505000Y-110570403D02*
X172505000Y-107195000D01*
X185860000Y-104330000D02*
X168190000Y-104330000D01*
X172510000Y-107190000D02*
X169650000Y-104330000D01*
X169650000Y-104330000D02*
X168190000Y-104330000D01*
X189370000Y-110570403D02*
X189370000Y-107840000D01*
X189370000Y-107840000D02*
X185860000Y-104330000D01*
%TO.N,+5V*%
X134050000Y-106880000D02*
X124950000Y-106880000D01*
X124950000Y-106880000D02*
X124190000Y-106120000D01*
%TD*%
%TA.AperFunction,Conductor*%
%TO.N,GND*%
G36*
X199625451Y-100329987D02*
G01*
X199692488Y-100349678D01*
X199738238Y-100402487D01*
X199749437Y-100454547D01*
X199652234Y-121980602D01*
X199648172Y-121994205D01*
X199648977Y-121995648D01*
X199652040Y-122023604D01*
X199640556Y-124566745D01*
X199620569Y-124633695D01*
X199567559Y-124679211D01*
X199516744Y-124690185D01*
X100285664Y-124839810D01*
X100218595Y-124820226D01*
X100172760Y-124767491D01*
X100161486Y-124714344D01*
X100171670Y-123853272D01*
X100193589Y-122000005D01*
X100594754Y-122000005D01*
X100613718Y-122301446D01*
X100613719Y-122301453D01*
X100620795Y-122338548D01*
X100656898Y-122527807D01*
X100670320Y-122598164D01*
X100763659Y-122885431D01*
X100763661Y-122885436D01*
X100892265Y-123158732D01*
X100892268Y-123158738D01*
X101054111Y-123413763D01*
X101246652Y-123646505D01*
X101466836Y-123853272D01*
X101466846Y-123853280D01*
X101711193Y-124030808D01*
X101711198Y-124030810D01*
X101711205Y-124030816D01*
X101975896Y-124176332D01*
X101975901Y-124176334D01*
X101975903Y-124176335D01*
X101975904Y-124176336D01*
X102256734Y-124287524D01*
X102256737Y-124287525D01*
X102354259Y-124312564D01*
X102549302Y-124362642D01*
X102696039Y-124381179D01*
X102848963Y-124400499D01*
X102848969Y-124400499D01*
X102848973Y-124400500D01*
X102848975Y-124400500D01*
X103151025Y-124400500D01*
X103151027Y-124400500D01*
X103151032Y-124400499D01*
X103151036Y-124400499D01*
X103230591Y-124390448D01*
X103450698Y-124362642D01*
X103743262Y-124287525D01*
X103743265Y-124287524D01*
X104024095Y-124176336D01*
X104024096Y-124176335D01*
X104024094Y-124176335D01*
X104024104Y-124176332D01*
X104288795Y-124030816D01*
X104533162Y-123853274D01*
X104753349Y-123646504D01*
X104945885Y-123413768D01*
X105107733Y-123158736D01*
X105236341Y-122885430D01*
X105329681Y-122598160D01*
X105386280Y-122301457D01*
X105386281Y-122301446D01*
X105405246Y-122000005D01*
X105405246Y-121999994D01*
X105386281Y-121698553D01*
X105386280Y-121698546D01*
X105386280Y-121698543D01*
X105329681Y-121401840D01*
X105236341Y-121114570D01*
X105107733Y-120841264D01*
X104945885Y-120586232D01*
X104753349Y-120353496D01*
X104727065Y-120328814D01*
X104578450Y-120189254D01*
X104533162Y-120146726D01*
X104533159Y-120146724D01*
X104533153Y-120146719D01*
X104288806Y-119969191D01*
X104288799Y-119969186D01*
X104288795Y-119969184D01*
X104024104Y-119823668D01*
X104024101Y-119823666D01*
X104024096Y-119823664D01*
X104024095Y-119823663D01*
X103743265Y-119712475D01*
X103743262Y-119712474D01*
X103450695Y-119637357D01*
X103151036Y-119599500D01*
X103151027Y-119599500D01*
X102848973Y-119599500D01*
X102848963Y-119599500D01*
X102549304Y-119637357D01*
X102256737Y-119712474D01*
X102256734Y-119712475D01*
X101975904Y-119823663D01*
X101975903Y-119823664D01*
X101711205Y-119969184D01*
X101711193Y-119969191D01*
X101466846Y-120146719D01*
X101466836Y-120146727D01*
X101246652Y-120353494D01*
X101054111Y-120586236D01*
X100892268Y-120841261D01*
X100892265Y-120841267D01*
X100763661Y-121114563D01*
X100763659Y-121114568D01*
X100670320Y-121401835D01*
X100613719Y-121698546D01*
X100613718Y-121698553D01*
X100594754Y-121999994D01*
X100594754Y-122000005D01*
X100193589Y-122000005D01*
X100227445Y-119137425D01*
X124129500Y-119137425D01*
X124135845Y-119203868D01*
X124144472Y-119294217D01*
X124144473Y-119294221D01*
X124200495Y-119485016D01*
X124203684Y-119495875D01*
X124251072Y-119587795D01*
X124299991Y-119682686D01*
X124429905Y-119847883D01*
X124429909Y-119847887D01*
X124588746Y-119985521D01*
X124770750Y-120090601D01*
X124770752Y-120090601D01*
X124770756Y-120090604D01*
X124969367Y-120159344D01*
X125177398Y-120189254D01*
X125387330Y-120179254D01*
X125591576Y-120129704D01*
X125677199Y-120090601D01*
X125782743Y-120042401D01*
X125782746Y-120042399D01*
X125782753Y-120042396D01*
X125953952Y-119920486D01*
X126051751Y-119817916D01*
X126112258Y-119782983D01*
X126182049Y-119786307D01*
X126238963Y-119826835D01*
X126247030Y-119838388D01*
X126287288Y-119903656D01*
X126411344Y-120027712D01*
X126560666Y-120119814D01*
X126727203Y-120174999D01*
X126829991Y-120185500D01*
X127630008Y-120185499D01*
X127630016Y-120185498D01*
X127630019Y-120185498D01*
X127691143Y-120179254D01*
X127732797Y-120174999D01*
X127899334Y-120119814D01*
X128048656Y-120027712D01*
X128172712Y-119903656D01*
X128264814Y-119754334D01*
X128319999Y-119587797D01*
X128330500Y-119485009D01*
X128330499Y-118134992D01*
X128319999Y-118032203D01*
X128264814Y-117865666D01*
X128172712Y-117716344D01*
X128048656Y-117592288D01*
X127955888Y-117535069D01*
X127899336Y-117500187D01*
X127899331Y-117500185D01*
X127869488Y-117490296D01*
X127732797Y-117445001D01*
X127732795Y-117445000D01*
X127630010Y-117434500D01*
X126829998Y-117434500D01*
X126829980Y-117434501D01*
X126727203Y-117445000D01*
X126727200Y-117445001D01*
X126560668Y-117500185D01*
X126560663Y-117500187D01*
X126411342Y-117592289D01*
X126287288Y-117716343D01*
X126287285Y-117716347D01*
X126248184Y-117779740D01*
X126196236Y-117826465D01*
X126127274Y-117837686D01*
X126063192Y-117809843D01*
X126045175Y-117791294D01*
X126030092Y-117772114D01*
X126030090Y-117772112D01*
X125871253Y-117634478D01*
X125689249Y-117529398D01*
X125689245Y-117529396D01*
X125689244Y-117529396D01*
X125490633Y-117460656D01*
X125282602Y-117430746D01*
X125282598Y-117430746D01*
X125072672Y-117440745D01*
X124868421Y-117490296D01*
X124868417Y-117490298D01*
X124677256Y-117577598D01*
X124677251Y-117577601D01*
X124506046Y-117699515D01*
X124506040Y-117699520D01*
X124361014Y-117851620D01*
X124247388Y-118028425D01*
X124169274Y-118223544D01*
X124129500Y-118429914D01*
X124129500Y-118429915D01*
X124129500Y-119137425D01*
X100227445Y-119137425D01*
X100273067Y-115280001D01*
X102524500Y-115280001D01*
X102524501Y-115280019D01*
X102535000Y-115382796D01*
X102535001Y-115382799D01*
X102590185Y-115549331D01*
X102590186Y-115549334D01*
X102682288Y-115698656D01*
X102806344Y-115822712D01*
X102955666Y-115914814D01*
X103122203Y-115969999D01*
X103224991Y-115980500D01*
X104575008Y-115980499D01*
X104677797Y-115969999D01*
X104844334Y-115914814D01*
X104993656Y-115822712D01*
X105117712Y-115698656D01*
X105209814Y-115549334D01*
X105264999Y-115382797D01*
X105275500Y-115280009D01*
X105275499Y-114479992D01*
X105264999Y-114377203D01*
X105209814Y-114210666D01*
X105117712Y-114061344D01*
X104993656Y-113937288D01*
X104929806Y-113897905D01*
X104883083Y-113845958D01*
X104871860Y-113776995D01*
X104899704Y-113712913D01*
X104918254Y-113694895D01*
X104937540Y-113679728D01*
X105075105Y-113520969D01*
X105075114Y-113520958D01*
X105180144Y-113339039D01*
X105180147Y-113339032D01*
X105248855Y-113140517D01*
X105248855Y-113140515D01*
X105250368Y-113130000D01*
X104179560Y-113130000D01*
X104218278Y-113087941D01*
X104268551Y-112973330D01*
X104278886Y-112848605D01*
X104248163Y-112727281D01*
X104184606Y-112630000D01*
X105246257Y-112630000D01*
X105219229Y-112518590D01*
X105131959Y-112327492D01*
X105010110Y-112156380D01*
X105010104Y-112156374D01*
X104858067Y-112011407D01*
X104681342Y-111897833D01*
X104486314Y-111819755D01*
X104280038Y-111780000D01*
X104150000Y-111780000D01*
X104150000Y-112599382D01*
X104080948Y-112545637D01*
X103962576Y-112505000D01*
X103868927Y-112505000D01*
X103776554Y-112520414D01*
X103666486Y-112579981D01*
X103650000Y-112597889D01*
X103650000Y-111780000D01*
X103572602Y-111780000D01*
X103415877Y-111794965D01*
X103415873Y-111794966D01*
X103214313Y-111854149D01*
X103027585Y-111950413D01*
X102862462Y-112080268D01*
X102862459Y-112080271D01*
X102724894Y-112239030D01*
X102724885Y-112239041D01*
X102619855Y-112420960D01*
X102619852Y-112420967D01*
X102551144Y-112619482D01*
X102551144Y-112619484D01*
X102549632Y-112630000D01*
X103620440Y-112630000D01*
X103581722Y-112672059D01*
X103531449Y-112786670D01*
X103521114Y-112911395D01*
X103551837Y-113032719D01*
X103615394Y-113130000D01*
X102553742Y-113130000D01*
X102580770Y-113241409D01*
X102668040Y-113432507D01*
X102789889Y-113603619D01*
X102789900Y-113603631D01*
X102892521Y-113701479D01*
X102927457Y-113761987D01*
X102924132Y-113831778D01*
X102883604Y-113888692D01*
X102872049Y-113896760D01*
X102806347Y-113937285D01*
X102806343Y-113937288D01*
X102682289Y-114061342D01*
X102590187Y-114210663D01*
X102590186Y-114210666D01*
X102535001Y-114377203D01*
X102535001Y-114377204D01*
X102535000Y-114377204D01*
X102524500Y-114479983D01*
X102524500Y-115280001D01*
X100273067Y-115280001D01*
X100378634Y-106354111D01*
X106141196Y-106354111D01*
X106156515Y-106509659D01*
X106217060Y-106709250D01*
X106315372Y-106893178D01*
X106315376Y-106893185D01*
X106447688Y-107054407D01*
X106608910Y-107186719D01*
X106608917Y-107186723D01*
X106792842Y-107285033D01*
X106792845Y-107285034D01*
X106949996Y-107332705D01*
X106949996Y-106972256D01*
X106969681Y-106905217D01*
X107022485Y-106859462D01*
X107091643Y-106849518D01*
X107107443Y-106852852D01*
X107123672Y-106857400D01*
X107123674Y-106857400D01*
X107237981Y-106857400D01*
X107309111Y-106847623D01*
X107378206Y-106857995D01*
X107430725Y-106904077D01*
X107449996Y-106970468D01*
X107449996Y-107332705D01*
X107607146Y-107285034D01*
X107607149Y-107285033D01*
X107791074Y-107186723D01*
X107791081Y-107186719D01*
X107952303Y-107054407D01*
X108084615Y-106893185D01*
X108084619Y-106893178D01*
X108182931Y-106709250D01*
X108243476Y-106509659D01*
X108258796Y-106354111D01*
X114781200Y-106354111D01*
X114796519Y-106509659D01*
X114857064Y-106709250D01*
X114955376Y-106893178D01*
X114955380Y-106893185D01*
X115087692Y-107054407D01*
X115248914Y-107186719D01*
X115248921Y-107186723D01*
X115432846Y-107285033D01*
X115432849Y-107285034D01*
X115590000Y-107332705D01*
X115590000Y-106972256D01*
X115609685Y-106905217D01*
X115662489Y-106859462D01*
X115731647Y-106849518D01*
X115747447Y-106852852D01*
X115763676Y-106857400D01*
X115763678Y-106857400D01*
X115877985Y-106857400D01*
X115949115Y-106847623D01*
X116018210Y-106857995D01*
X116070729Y-106904077D01*
X116090000Y-106970468D01*
X116090000Y-107332705D01*
X116247150Y-107285034D01*
X116247153Y-107285033D01*
X116431078Y-107186723D01*
X116431085Y-107186719D01*
X116592307Y-107054407D01*
X116724619Y-106893185D01*
X116724623Y-106893178D01*
X116822935Y-106709250D01*
X116883480Y-106509659D01*
X116898800Y-106354111D01*
X116898800Y-106260000D01*
X116499296Y-106260000D01*
X116432257Y-106240315D01*
X116386502Y-106187511D01*
X116377889Y-106161228D01*
X116369322Y-106120000D01*
X123184659Y-106120000D01*
X123203975Y-106316129D01*
X123261188Y-106504733D01*
X123354086Y-106678532D01*
X123354090Y-106678539D01*
X123479116Y-106830883D01*
X123631460Y-106955909D01*
X123631467Y-106955913D01*
X123805266Y-107048811D01*
X123805269Y-107048811D01*
X123805273Y-107048814D01*
X123993868Y-107106024D01*
X124162135Y-107122596D01*
X124226921Y-107148757D01*
X124237661Y-107158318D01*
X124437058Y-107357715D01*
X124442178Y-107363153D01*
X124482071Y-107408183D01*
X124525018Y-107437827D01*
X124531569Y-107442349D01*
X124537601Y-107446788D01*
X124584938Y-107483874D01*
X124584943Y-107483877D01*
X124594174Y-107488031D01*
X124613727Y-107499059D01*
X124622070Y-107504818D01*
X124678322Y-107526151D01*
X124685228Y-107529012D01*
X124740063Y-107553692D01*
X124740064Y-107553692D01*
X124740068Y-107553694D01*
X124750030Y-107555519D01*
X124771651Y-107561546D01*
X124781125Y-107565139D01*
X124781128Y-107565140D01*
X124825234Y-107570495D01*
X124840830Y-107572389D01*
X124848235Y-107573516D01*
X124869400Y-107577394D01*
X124907394Y-107584357D01*
X124967423Y-107580726D01*
X124974910Y-107580500D01*
X133282098Y-107580500D01*
X133349137Y-107600185D01*
X133360757Y-107608642D01*
X133418724Y-107656215D01*
X133491460Y-107715909D01*
X133491467Y-107715913D01*
X133665266Y-107808811D01*
X133665269Y-107808811D01*
X133665273Y-107808814D01*
X133853868Y-107866024D01*
X134050000Y-107885341D01*
X134246132Y-107866024D01*
X134434727Y-107808814D01*
X134608538Y-107715910D01*
X134760883Y-107590883D01*
X134885910Y-107438538D01*
X134978814Y-107264727D01*
X135036024Y-107076132D01*
X135055341Y-106880000D01*
X135036024Y-106683868D01*
X134978814Y-106495273D01*
X134978811Y-106495269D01*
X134978811Y-106495266D01*
X134885913Y-106321467D01*
X134885909Y-106321460D01*
X134760883Y-106169116D01*
X134608539Y-106044090D01*
X134608532Y-106044086D01*
X134434733Y-105951188D01*
X134434727Y-105951186D01*
X134246132Y-105893976D01*
X134246129Y-105893975D01*
X134050000Y-105874659D01*
X133853870Y-105893975D01*
X133665266Y-105951188D01*
X133491467Y-106044086D01*
X133491460Y-106044090D01*
X133405799Y-106114392D01*
X133360761Y-106151353D01*
X133296454Y-106178666D01*
X133282098Y-106179500D01*
X125313588Y-106179500D01*
X125246549Y-106159815D01*
X125200794Y-106107011D01*
X125190185Y-106067654D01*
X125188214Y-106047644D01*
X125176024Y-105923868D01*
X125118814Y-105735273D01*
X125118811Y-105735269D01*
X125118811Y-105735266D01*
X125025913Y-105561467D01*
X125025909Y-105561460D01*
X124900883Y-105409116D01*
X124748539Y-105284090D01*
X124748532Y-105284086D01*
X124574733Y-105191188D01*
X124574727Y-105191186D01*
X124386132Y-105133976D01*
X124386129Y-105133975D01*
X124190000Y-105114659D01*
X123993870Y-105133975D01*
X123805266Y-105191188D01*
X123631467Y-105284086D01*
X123631460Y-105284090D01*
X123479116Y-105409116D01*
X123354090Y-105561460D01*
X123354086Y-105561467D01*
X123261188Y-105735266D01*
X123203975Y-105923870D01*
X123184659Y-106120000D01*
X116369322Y-106120000D01*
X116368157Y-106114393D01*
X116345635Y-106070928D01*
X116332270Y-106002351D01*
X116338891Y-105972361D01*
X116373615Y-105874659D01*
X116385054Y-105842474D01*
X116426053Y-105785898D01*
X116491130Y-105760468D01*
X116501894Y-105760000D01*
X116898800Y-105760000D01*
X116898800Y-105665888D01*
X116883480Y-105510340D01*
X116822935Y-105310749D01*
X116724623Y-105126821D01*
X116724619Y-105126814D01*
X116592307Y-104965592D01*
X116431085Y-104833280D01*
X116431078Y-104833276D01*
X116247152Y-104734965D01*
X116090000Y-104687293D01*
X116090000Y-105047743D01*
X116070315Y-105114782D01*
X116017511Y-105160537D01*
X115948353Y-105170481D01*
X115932547Y-105167145D01*
X115916326Y-105162600D01*
X115916324Y-105162600D01*
X115802015Y-105162600D01*
X115802013Y-105162600D01*
X115730884Y-105172376D01*
X115661789Y-105162003D01*
X115609270Y-105115921D01*
X115590000Y-105049531D01*
X115590000Y-104687293D01*
X115589999Y-104687293D01*
X115432847Y-104734965D01*
X115248921Y-104833276D01*
X115248914Y-104833280D01*
X115087692Y-104965592D01*
X114955380Y-105126814D01*
X114955376Y-105126821D01*
X114857064Y-105310749D01*
X114796519Y-105510340D01*
X114781200Y-105665888D01*
X114781200Y-105760000D01*
X115180704Y-105760000D01*
X115247743Y-105779685D01*
X115293498Y-105832489D01*
X115302111Y-105858772D01*
X115311843Y-105905607D01*
X115311844Y-105905610D01*
X115334364Y-105949072D01*
X115347729Y-106017651D01*
X115341106Y-106047644D01*
X115294946Y-106177525D01*
X115253948Y-106234102D01*
X115188870Y-106259532D01*
X115178106Y-106260000D01*
X114781200Y-106260000D01*
X114781200Y-106354111D01*
X108258796Y-106354111D01*
X108258796Y-106260000D01*
X107859292Y-106260000D01*
X107792253Y-106240315D01*
X107746498Y-106187511D01*
X107737885Y-106161228D01*
X107728153Y-106114393D01*
X107705631Y-106070928D01*
X107692266Y-106002351D01*
X107698887Y-105972361D01*
X107733611Y-105874659D01*
X107745050Y-105842474D01*
X107786049Y-105785898D01*
X107851126Y-105760468D01*
X107861890Y-105760000D01*
X108258796Y-105760000D01*
X108258796Y-105665888D01*
X108243476Y-105510340D01*
X108182931Y-105310749D01*
X108084619Y-105126821D01*
X108084615Y-105126814D01*
X107952303Y-104965592D01*
X107791081Y-104833280D01*
X107791074Y-104833276D01*
X107607148Y-104734965D01*
X107449996Y-104687293D01*
X107449996Y-105047743D01*
X107430311Y-105114782D01*
X107377507Y-105160537D01*
X107308349Y-105170481D01*
X107292543Y-105167145D01*
X107276322Y-105162600D01*
X107276320Y-105162600D01*
X107162011Y-105162600D01*
X107162009Y-105162600D01*
X107090880Y-105172376D01*
X107021785Y-105162003D01*
X106969266Y-105115921D01*
X106949996Y-105049531D01*
X106949996Y-104687293D01*
X106949995Y-104687293D01*
X106792843Y-104734965D01*
X106608917Y-104833276D01*
X106608910Y-104833280D01*
X106447688Y-104965592D01*
X106315376Y-105126814D01*
X106315372Y-105126821D01*
X106217060Y-105310749D01*
X106156515Y-105510340D01*
X106141196Y-105665888D01*
X106141196Y-105760000D01*
X106540700Y-105760000D01*
X106607739Y-105779685D01*
X106653494Y-105832489D01*
X106662107Y-105858772D01*
X106671839Y-105905607D01*
X106671840Y-105905610D01*
X106694360Y-105949072D01*
X106707725Y-106017651D01*
X106701102Y-106047644D01*
X106654942Y-106177525D01*
X106613944Y-106234102D01*
X106548866Y-106259532D01*
X106538102Y-106260000D01*
X106141196Y-106260000D01*
X106141196Y-106354111D01*
X100378634Y-106354111D01*
X100411762Y-103553025D01*
X100432238Y-103486226D01*
X100485579Y-103441098D01*
X100554850Y-103431973D01*
X100618058Y-103461748D01*
X100655135Y-103520969D01*
X100657556Y-103531258D01*
X100670318Y-103598157D01*
X100670318Y-103598159D01*
X100763659Y-103885431D01*
X100763661Y-103885436D01*
X100892265Y-104158732D01*
X100892268Y-104158738D01*
X101054111Y-104413763D01*
X101246652Y-104646505D01*
X101466836Y-104853272D01*
X101466846Y-104853280D01*
X101711193Y-105030808D01*
X101711198Y-105030810D01*
X101711205Y-105030816D01*
X101975896Y-105176332D01*
X101975901Y-105176334D01*
X101975903Y-105176335D01*
X101975904Y-105176336D01*
X102256734Y-105287524D01*
X102256737Y-105287525D01*
X102347190Y-105310749D01*
X102549302Y-105362642D01*
X102696039Y-105381179D01*
X102848963Y-105400499D01*
X102848969Y-105400499D01*
X102848973Y-105400500D01*
X102848975Y-105400500D01*
X103151025Y-105400500D01*
X103151027Y-105400500D01*
X103151032Y-105400499D01*
X103151036Y-105400499D01*
X103230591Y-105390448D01*
X103450698Y-105362642D01*
X103743262Y-105287525D01*
X103751948Y-105284086D01*
X104024095Y-105176336D01*
X104024096Y-105176335D01*
X104024094Y-105176335D01*
X104024104Y-105176332D01*
X104288795Y-105030816D01*
X104533162Y-104853274D01*
X104753349Y-104646504D01*
X104945885Y-104413768D01*
X104999046Y-104330000D01*
X149394659Y-104330000D01*
X149413975Y-104526129D01*
X149471188Y-104714733D01*
X149564086Y-104888532D01*
X149564090Y-104888539D01*
X149689116Y-105040883D01*
X149841460Y-105165909D01*
X149841467Y-105165913D01*
X150015266Y-105258811D01*
X150015269Y-105258811D01*
X150015273Y-105258814D01*
X150203868Y-105316024D01*
X150400000Y-105335341D01*
X150596132Y-105316024D01*
X150784727Y-105258814D01*
X150958538Y-105165910D01*
X151089238Y-105058646D01*
X151153546Y-105031334D01*
X151167902Y-105030500D01*
X151918481Y-105030500D01*
X151985520Y-105050185D01*
X152006162Y-105066819D01*
X152030237Y-105090894D01*
X152063722Y-105152217D01*
X152058738Y-105221909D01*
X152036721Y-105259253D01*
X151940939Y-105371047D01*
X151940937Y-105371051D01*
X151881903Y-105502251D01*
X151881898Y-105502264D01*
X151863308Y-105566908D01*
X151862760Y-105568675D01*
X151862589Y-105569406D01*
X151842909Y-105711942D01*
X151913214Y-118277167D01*
X151893905Y-118344316D01*
X151841358Y-118390365D01*
X151777062Y-118401263D01*
X151710000Y-118394659D01*
X151513870Y-118413975D01*
X151325266Y-118471188D01*
X151151467Y-118564086D01*
X151151460Y-118564090D01*
X150999116Y-118689116D01*
X150874090Y-118841460D01*
X150874086Y-118841467D01*
X150781188Y-119015266D01*
X150723975Y-119203870D01*
X150704659Y-119400000D01*
X150723975Y-119596129D01*
X150723976Y-119596132D01*
X150771965Y-119754331D01*
X150781188Y-119784733D01*
X150874086Y-119958532D01*
X150874090Y-119958539D01*
X150999116Y-120110883D01*
X151151460Y-120235909D01*
X151151467Y-120235913D01*
X151325266Y-120328811D01*
X151325269Y-120328811D01*
X151325273Y-120328814D01*
X151513868Y-120386024D01*
X151710000Y-120405341D01*
X151789612Y-120397500D01*
X151858258Y-120410519D01*
X151908968Y-120458584D01*
X151925764Y-120520209D01*
X151933817Y-121959518D01*
X151945665Y-122065523D01*
X151945666Y-122065529D01*
X151956870Y-122116348D01*
X151956873Y-122116359D01*
X151990694Y-122217503D01*
X152068479Y-122338537D01*
X152068487Y-122338548D01*
X152114231Y-122391340D01*
X152114234Y-122391343D01*
X152114238Y-122391347D01*
X152222972Y-122485567D01*
X152353849Y-122545338D01*
X152420888Y-122565023D01*
X152420892Y-122565024D01*
X152563308Y-122585500D01*
X152563311Y-122585500D01*
X193595620Y-122585500D01*
X193595621Y-122585500D01*
X193703831Y-122573782D01*
X193755687Y-122562418D01*
X193858873Y-122527811D01*
X193858876Y-122527808D01*
X193858880Y-122527807D01*
X193979668Y-122449659D01*
X193979668Y-122449658D01*
X193979674Y-122449655D01*
X194028911Y-122406726D01*
X194030629Y-122405336D01*
X194032338Y-122403739D01*
X194032342Y-122403736D01*
X194126230Y-122294710D01*
X194185599Y-122163650D01*
X194205078Y-122096551D01*
X194218658Y-122000005D01*
X194594754Y-122000005D01*
X194613718Y-122301446D01*
X194613719Y-122301453D01*
X194620795Y-122338548D01*
X194656898Y-122527807D01*
X194670320Y-122598164D01*
X194763659Y-122885431D01*
X194763661Y-122885436D01*
X194892265Y-123158732D01*
X194892268Y-123158738D01*
X195054111Y-123413763D01*
X195246652Y-123646505D01*
X195466836Y-123853272D01*
X195466846Y-123853280D01*
X195711193Y-124030808D01*
X195711198Y-124030810D01*
X195711205Y-124030816D01*
X195975896Y-124176332D01*
X195975901Y-124176334D01*
X195975903Y-124176335D01*
X195975904Y-124176336D01*
X196256734Y-124287524D01*
X196256737Y-124287525D01*
X196354259Y-124312564D01*
X196549302Y-124362642D01*
X196696039Y-124381179D01*
X196848963Y-124400499D01*
X196848969Y-124400499D01*
X196848973Y-124400500D01*
X196848975Y-124400500D01*
X197151025Y-124400500D01*
X197151027Y-124400500D01*
X197151032Y-124400499D01*
X197151036Y-124400499D01*
X197230591Y-124390448D01*
X197450698Y-124362642D01*
X197743262Y-124287525D01*
X197743265Y-124287524D01*
X198024095Y-124176336D01*
X198024096Y-124176335D01*
X198024094Y-124176335D01*
X198024104Y-124176332D01*
X198288795Y-124030816D01*
X198533162Y-123853274D01*
X198753349Y-123646504D01*
X198945885Y-123413768D01*
X199107733Y-123158736D01*
X199236341Y-122885430D01*
X199329681Y-122598160D01*
X199386280Y-122301457D01*
X199386705Y-122294711D01*
X199404286Y-122015258D01*
X199407639Y-122006024D01*
X199404480Y-121987828D01*
X199404025Y-121980602D01*
X199386280Y-121698543D01*
X199329681Y-121401840D01*
X199236341Y-121114570D01*
X199107733Y-120841264D01*
X198945885Y-120586232D01*
X198753349Y-120353496D01*
X198727065Y-120328814D01*
X198578450Y-120189254D01*
X198533162Y-120146726D01*
X198533159Y-120146724D01*
X198533153Y-120146719D01*
X198288806Y-119969191D01*
X198288799Y-119969186D01*
X198288795Y-119969184D01*
X198024104Y-119823668D01*
X198024101Y-119823666D01*
X198024096Y-119823664D01*
X198024095Y-119823663D01*
X197743265Y-119712475D01*
X197743262Y-119712474D01*
X197450695Y-119637357D01*
X197151036Y-119599500D01*
X197151027Y-119599500D01*
X196848973Y-119599500D01*
X196848963Y-119599500D01*
X196549304Y-119637357D01*
X196256737Y-119712474D01*
X196256734Y-119712475D01*
X195975904Y-119823663D01*
X195975903Y-119823664D01*
X195711205Y-119969184D01*
X195711193Y-119969191D01*
X195466846Y-120146719D01*
X195466836Y-120146727D01*
X195246652Y-120353494D01*
X195054111Y-120586236D01*
X194892268Y-120841261D01*
X194892265Y-120841267D01*
X194763661Y-121114563D01*
X194763659Y-121114568D01*
X194670320Y-121401835D01*
X194613719Y-121698546D01*
X194613718Y-121698553D01*
X194594754Y-121999994D01*
X194594754Y-122000005D01*
X194218658Y-122000005D01*
X194225118Y-121954075D01*
X194218847Y-119903657D01*
X194196732Y-112672059D01*
X194167153Y-103000005D01*
X194594754Y-103000005D01*
X194613718Y-103301446D01*
X194613719Y-103301453D01*
X194629985Y-103386723D01*
X194670318Y-103598157D01*
X194670320Y-103598164D01*
X194763659Y-103885431D01*
X194763661Y-103885436D01*
X194892265Y-104158732D01*
X194892268Y-104158738D01*
X195054111Y-104413763D01*
X195246652Y-104646505D01*
X195466836Y-104853272D01*
X195466846Y-104853280D01*
X195711193Y-105030808D01*
X195711198Y-105030810D01*
X195711205Y-105030816D01*
X195975896Y-105176332D01*
X195975901Y-105176334D01*
X195975903Y-105176335D01*
X195975904Y-105176336D01*
X196256734Y-105287524D01*
X196256737Y-105287525D01*
X196347190Y-105310749D01*
X196549302Y-105362642D01*
X196696039Y-105381179D01*
X196848963Y-105400499D01*
X196848969Y-105400499D01*
X196848973Y-105400500D01*
X196848975Y-105400500D01*
X197151025Y-105400500D01*
X197151027Y-105400500D01*
X197151032Y-105400499D01*
X197151036Y-105400499D01*
X197230591Y-105390448D01*
X197450698Y-105362642D01*
X197743262Y-105287525D01*
X197751948Y-105284086D01*
X198024095Y-105176336D01*
X198024096Y-105176335D01*
X198024094Y-105176335D01*
X198024104Y-105176332D01*
X198288795Y-105030816D01*
X198533162Y-104853274D01*
X198753349Y-104646504D01*
X198945885Y-104413768D01*
X199107733Y-104158736D01*
X199236341Y-103885430D01*
X199329681Y-103598160D01*
X199386280Y-103301457D01*
X199394521Y-103170468D01*
X199405246Y-103000005D01*
X199405246Y-102999994D01*
X199386281Y-102698553D01*
X199386280Y-102698546D01*
X199386280Y-102698543D01*
X199329681Y-102401840D01*
X199236341Y-102114570D01*
X199232123Y-102105607D01*
X199172869Y-101979685D01*
X199107733Y-101841264D01*
X198945885Y-101586232D01*
X198753349Y-101353496D01*
X198533162Y-101146726D01*
X198533159Y-101146724D01*
X198533153Y-101146719D01*
X198288806Y-100969191D01*
X198288799Y-100969186D01*
X198288795Y-100969184D01*
X198024104Y-100823668D01*
X198024101Y-100823666D01*
X198024096Y-100823664D01*
X198024095Y-100823663D01*
X197743265Y-100712475D01*
X197743262Y-100712474D01*
X197450695Y-100637357D01*
X197151036Y-100599500D01*
X197151027Y-100599500D01*
X196848973Y-100599500D01*
X196848963Y-100599500D01*
X196549304Y-100637357D01*
X196256737Y-100712474D01*
X196256734Y-100712475D01*
X195975904Y-100823663D01*
X195975903Y-100823664D01*
X195711205Y-100969184D01*
X195711193Y-100969191D01*
X195466846Y-101146719D01*
X195466836Y-101146727D01*
X195246652Y-101353494D01*
X195054111Y-101586236D01*
X194892268Y-101841261D01*
X194892265Y-101841267D01*
X194763661Y-102114563D01*
X194763659Y-102114568D01*
X194670320Y-102401835D01*
X194613719Y-102698546D01*
X194613718Y-102698553D01*
X194594754Y-102999994D01*
X194594754Y-103000005D01*
X194167153Y-103000005D01*
X194165875Y-102581955D01*
X194154213Y-102475535D01*
X194143058Y-102424512D01*
X194109245Y-102322933D01*
X194109243Y-102322931D01*
X194109242Y-102322927D01*
X194031580Y-102201824D01*
X194031575Y-102201818D01*
X193985869Y-102148967D01*
X193877224Y-102054641D01*
X193877223Y-102054640D01*
X193877221Y-102054639D01*
X193877218Y-102054637D01*
X193746412Y-101994747D01*
X193746401Y-101994742D01*
X193679386Y-101974994D01*
X193536982Y-101954379D01*
X152693855Y-101914850D01*
X152455301Y-101914620D01*
X152455300Y-101914620D01*
X152455295Y-101914620D01*
X152346217Y-101926422D01*
X152346202Y-101926425D01*
X152293948Y-101937920D01*
X152189994Y-101972978D01*
X152069390Y-102051441D01*
X152069386Y-102051444D01*
X152030386Y-102085622D01*
X152022791Y-102090548D01*
X151923233Y-102206751D01*
X151923230Y-102206756D01*
X151864194Y-102337963D01*
X151864191Y-102337973D01*
X151845233Y-102403900D01*
X151844898Y-102405020D01*
X151844886Y-102405110D01*
X151844885Y-102405112D01*
X151839590Y-102443464D01*
X151825205Y-102547646D01*
X151830561Y-103504806D01*
X151811252Y-103571955D01*
X151758705Y-103618004D01*
X151706563Y-103629500D01*
X151167902Y-103629500D01*
X151100863Y-103609815D01*
X151089242Y-103601357D01*
X151030350Y-103553025D01*
X150958539Y-103494090D01*
X150958532Y-103494086D01*
X150784733Y-103401188D01*
X150784727Y-103401186D01*
X150596132Y-103343976D01*
X150596129Y-103343975D01*
X150400000Y-103324659D01*
X150203870Y-103343975D01*
X150015266Y-103401188D01*
X149841467Y-103494086D01*
X149841460Y-103494090D01*
X149689116Y-103619116D01*
X149564090Y-103771460D01*
X149564086Y-103771467D01*
X149471188Y-103945266D01*
X149413975Y-104133870D01*
X149394659Y-104330000D01*
X104999046Y-104330000D01*
X105107733Y-104158736D01*
X105236341Y-103885430D01*
X105329681Y-103598160D01*
X105386280Y-103301457D01*
X105394521Y-103170468D01*
X105405246Y-103000005D01*
X105405246Y-102999994D01*
X105386281Y-102698553D01*
X105386280Y-102698546D01*
X105386280Y-102698543D01*
X105358728Y-102554111D01*
X106141196Y-102554111D01*
X106156515Y-102709659D01*
X106217060Y-102909250D01*
X106315372Y-103093178D01*
X106315376Y-103093185D01*
X106447688Y-103254407D01*
X106608910Y-103386719D01*
X106608917Y-103386723D01*
X106792842Y-103485033D01*
X106792845Y-103485034D01*
X106949996Y-103532705D01*
X106949996Y-103172256D01*
X106969681Y-103105217D01*
X107022485Y-103059462D01*
X107091643Y-103049518D01*
X107107443Y-103052852D01*
X107123672Y-103057400D01*
X107123674Y-103057400D01*
X107237981Y-103057400D01*
X107309111Y-103047623D01*
X107378206Y-103057995D01*
X107430725Y-103104077D01*
X107449996Y-103170468D01*
X107449996Y-103532705D01*
X107607146Y-103485034D01*
X107607149Y-103485033D01*
X107791074Y-103386723D01*
X107791081Y-103386719D01*
X107952303Y-103254407D01*
X108084615Y-103093185D01*
X108084619Y-103093178D01*
X108182931Y-102909250D01*
X108243476Y-102709659D01*
X108258796Y-102554111D01*
X114781200Y-102554111D01*
X114796519Y-102709659D01*
X114857064Y-102909250D01*
X114955376Y-103093178D01*
X114955380Y-103093185D01*
X115087692Y-103254407D01*
X115248914Y-103386719D01*
X115248921Y-103386723D01*
X115432846Y-103485033D01*
X115432849Y-103485034D01*
X115590000Y-103532705D01*
X115590000Y-103172256D01*
X115609685Y-103105217D01*
X115662489Y-103059462D01*
X115731647Y-103049518D01*
X115747447Y-103052852D01*
X115763676Y-103057400D01*
X115763678Y-103057400D01*
X115877985Y-103057400D01*
X115949115Y-103047623D01*
X116018210Y-103057995D01*
X116070729Y-103104077D01*
X116090000Y-103170468D01*
X116090000Y-103532705D01*
X116247150Y-103485034D01*
X116247153Y-103485033D01*
X116431078Y-103386723D01*
X116431085Y-103386719D01*
X116592307Y-103254407D01*
X116724619Y-103093185D01*
X116724623Y-103093178D01*
X116822935Y-102909250D01*
X116883480Y-102709659D01*
X116898800Y-102554111D01*
X116898800Y-102460000D01*
X116499296Y-102460000D01*
X116432257Y-102440315D01*
X116386502Y-102387511D01*
X116377889Y-102361228D01*
X116368157Y-102314393D01*
X116358401Y-102295564D01*
X116344500Y-102238518D01*
X116344500Y-102177959D01*
X116351660Y-102136433D01*
X116355927Y-102124429D01*
X116369719Y-102085622D01*
X116385054Y-102042474D01*
X116426053Y-101985898D01*
X116491130Y-101960468D01*
X116501894Y-101960000D01*
X116898800Y-101960000D01*
X116898800Y-101865888D01*
X116883480Y-101710340D01*
X116822935Y-101510749D01*
X116724623Y-101326821D01*
X116724619Y-101326814D01*
X116592307Y-101165592D01*
X116431085Y-101033280D01*
X116431078Y-101033276D01*
X116247152Y-100934965D01*
X116090000Y-100887293D01*
X116090000Y-101247743D01*
X116070315Y-101314782D01*
X116017511Y-101360537D01*
X115948353Y-101370481D01*
X115932547Y-101367145D01*
X115916326Y-101362600D01*
X115916324Y-101362600D01*
X115802015Y-101362600D01*
X115802013Y-101362600D01*
X115730884Y-101372376D01*
X115661789Y-101362003D01*
X115609270Y-101315921D01*
X115590000Y-101249531D01*
X115590000Y-100887293D01*
X115589999Y-100887293D01*
X115432847Y-100934965D01*
X115248921Y-101033276D01*
X115248914Y-101033280D01*
X115087692Y-101165592D01*
X114955380Y-101326814D01*
X114955376Y-101326821D01*
X114857064Y-101510749D01*
X114796519Y-101710340D01*
X114781200Y-101865888D01*
X114781200Y-101960000D01*
X115180704Y-101960000D01*
X115247743Y-101979685D01*
X115293498Y-102032489D01*
X115302110Y-102058769D01*
X115311843Y-102105606D01*
X115311844Y-102105611D01*
X115321596Y-102124429D01*
X115335500Y-102181480D01*
X115335500Y-102242040D01*
X115328340Y-102283566D01*
X115294946Y-102377526D01*
X115253948Y-102434102D01*
X115188870Y-102459532D01*
X115178106Y-102460000D01*
X114781200Y-102460000D01*
X114781200Y-102554111D01*
X108258796Y-102554111D01*
X108258796Y-102460000D01*
X107859292Y-102460000D01*
X107792253Y-102440315D01*
X107746498Y-102387511D01*
X107737885Y-102361228D01*
X107728153Y-102314393D01*
X107705631Y-102270928D01*
X107692266Y-102202351D01*
X107698887Y-102172361D01*
X107729715Y-102085622D01*
X107745050Y-102042474D01*
X107786049Y-101985898D01*
X107851126Y-101960468D01*
X107861890Y-101960000D01*
X108258796Y-101960000D01*
X108258796Y-101865888D01*
X108243476Y-101710340D01*
X108182931Y-101510749D01*
X108084619Y-101326821D01*
X108084615Y-101326814D01*
X107952303Y-101165592D01*
X107791081Y-101033280D01*
X107791074Y-101033276D01*
X107607148Y-100934965D01*
X107449996Y-100887293D01*
X107449996Y-101247743D01*
X107430311Y-101314782D01*
X107377507Y-101360537D01*
X107308349Y-101370481D01*
X107292543Y-101367145D01*
X107276322Y-101362600D01*
X107276320Y-101362600D01*
X107162011Y-101362600D01*
X107162009Y-101362600D01*
X107090880Y-101372376D01*
X107021785Y-101362003D01*
X106969266Y-101315921D01*
X106949996Y-101249531D01*
X106949996Y-100887293D01*
X106949995Y-100887293D01*
X106792843Y-100934965D01*
X106608917Y-101033276D01*
X106608910Y-101033280D01*
X106447688Y-101165592D01*
X106315376Y-101326814D01*
X106315372Y-101326821D01*
X106217060Y-101510749D01*
X106156515Y-101710340D01*
X106141196Y-101865888D01*
X106141196Y-101960000D01*
X106540700Y-101960000D01*
X106607739Y-101979685D01*
X106653494Y-102032489D01*
X106662107Y-102058772D01*
X106671839Y-102105607D01*
X106671840Y-102105610D01*
X106694360Y-102149072D01*
X106707725Y-102217651D01*
X106701102Y-102247644D01*
X106654942Y-102377525D01*
X106613944Y-102434102D01*
X106548866Y-102459532D01*
X106538102Y-102460000D01*
X106141196Y-102460000D01*
X106141196Y-102554111D01*
X105358728Y-102554111D01*
X105329681Y-102401840D01*
X105236341Y-102114570D01*
X105232123Y-102105607D01*
X105172869Y-101979685D01*
X105107733Y-101841264D01*
X104945885Y-101586232D01*
X104753349Y-101353496D01*
X104533162Y-101146726D01*
X104533159Y-101146724D01*
X104533153Y-101146719D01*
X104288806Y-100969191D01*
X104288799Y-100969186D01*
X104288795Y-100969184D01*
X104024104Y-100823668D01*
X104024101Y-100823666D01*
X104024096Y-100823664D01*
X104024095Y-100823663D01*
X103743265Y-100712475D01*
X103743262Y-100712474D01*
X103450695Y-100637357D01*
X103151036Y-100599500D01*
X103151027Y-100599500D01*
X102848973Y-100599500D01*
X102848963Y-100599500D01*
X102549304Y-100637357D01*
X102256737Y-100712474D01*
X102256734Y-100712475D01*
X101975904Y-100823663D01*
X101975903Y-100823664D01*
X101711205Y-100969184D01*
X101711193Y-100969191D01*
X101466846Y-101146719D01*
X101466836Y-101146727D01*
X101246652Y-101353494D01*
X101054111Y-101586236D01*
X100892268Y-101841261D01*
X100892265Y-101841267D01*
X100763661Y-102114563D01*
X100763659Y-102114568D01*
X100670317Y-102401845D01*
X100669830Y-102403743D01*
X100669545Y-102404220D01*
X100669115Y-102405546D01*
X100668814Y-102405448D01*
X100634087Y-102463779D01*
X100571561Y-102494960D01*
X100502103Y-102487387D01*
X100447766Y-102443464D01*
X100425801Y-102377137D01*
X100425737Y-102371455D01*
X100448550Y-100442543D01*
X100469026Y-100375744D01*
X100522367Y-100330616D01*
X100572551Y-100320012D01*
X199625451Y-100329987D01*
G37*
%TD.AperFunction*%
%TD*%
%TA.AperFunction,Conductor*%
%TO.N,LED_OUT*%
G36*
X193536499Y-102459880D02*
G01*
X193603518Y-102479629D01*
X193649222Y-102532478D01*
X193660377Y-102583501D01*
X193719620Y-121955621D01*
X193700141Y-122022720D01*
X193647477Y-122068636D01*
X193595621Y-122080000D01*
X152563308Y-122080000D01*
X152496269Y-122060315D01*
X152450514Y-122007511D01*
X152439310Y-121956694D01*
X152439304Y-121955621D01*
X152348402Y-105709109D01*
X152367711Y-105641964D01*
X152420258Y-105595915D01*
X152489360Y-105585584D01*
X152553077Y-105614253D01*
X152560081Y-105620738D01*
X154903181Y-107963838D01*
X154936666Y-108025161D01*
X154939500Y-108051519D01*
X154939500Y-109731626D01*
X154919815Y-109798665D01*
X154867011Y-109844420D01*
X154850095Y-109850702D01*
X154761615Y-109876407D01*
X154761612Y-109876409D01*
X154626670Y-109956213D01*
X154626662Y-109956219D01*
X154515816Y-110067065D01*
X154515810Y-110067073D01*
X154436006Y-110202015D01*
X154436005Y-110202018D01*
X154392268Y-110352559D01*
X154392267Y-110352565D01*
X154389500Y-110387727D01*
X154389500Y-110753078D01*
X154392267Y-110788240D01*
X154392268Y-110788246D01*
X154436005Y-110938787D01*
X154436006Y-110938790D01*
X154515810Y-111073732D01*
X154515816Y-111073740D01*
X154626662Y-111184586D01*
X154626666Y-111184589D01*
X154626668Y-111184591D01*
X154761611Y-111264396D01*
X154801313Y-111275930D01*
X154912156Y-111308134D01*
X154912159Y-111308134D01*
X154912161Y-111308135D01*
X154947332Y-111310903D01*
X154947340Y-111310903D01*
X156332660Y-111310903D01*
X156332668Y-111310903D01*
X156367839Y-111308135D01*
X156367841Y-111308134D01*
X156367843Y-111308134D01*
X156407541Y-111296600D01*
X156518389Y-111264396D01*
X156653332Y-111184591D01*
X156764188Y-111073735D01*
X156843993Y-110938792D01*
X156887732Y-110788242D01*
X156890500Y-110753071D01*
X156890500Y-110387735D01*
X156887732Y-110352564D01*
X156843993Y-110202014D01*
X156764188Y-110067071D01*
X156764186Y-110067069D01*
X156764183Y-110067065D01*
X156653337Y-109956219D01*
X156653329Y-109956213D01*
X156518387Y-109876409D01*
X156518384Y-109876407D01*
X156429905Y-109850702D01*
X156371019Y-109813096D01*
X156341813Y-109749623D01*
X156340500Y-109731626D01*
X156340500Y-107734920D01*
X156340726Y-107727432D01*
X156344358Y-107667394D01*
X156333514Y-107608221D01*
X156332387Y-107600815D01*
X156329279Y-107575221D01*
X156325140Y-107541128D01*
X156321548Y-107531656D01*
X156315521Y-107510034D01*
X156314366Y-107503731D01*
X156313695Y-107500069D01*
X156313693Y-107500066D01*
X156313693Y-107500063D01*
X156289009Y-107445221D01*
X156286154Y-107438331D01*
X156264818Y-107382070D01*
X156259062Y-107373731D01*
X156248034Y-107354177D01*
X156243880Y-107344946D01*
X156229743Y-107326902D01*
X156206780Y-107297591D01*
X156202352Y-107291573D01*
X156185535Y-107267210D01*
X156168183Y-107242071D01*
X156123153Y-107202178D01*
X156117715Y-107197058D01*
X154162838Y-105242181D01*
X154129353Y-105180858D01*
X154134337Y-105111166D01*
X154176209Y-105055233D01*
X154241673Y-105030816D01*
X154250519Y-105030500D01*
X168147628Y-105030500D01*
X169308481Y-105030500D01*
X169375520Y-105050185D01*
X169396162Y-105066819D01*
X171768181Y-107438838D01*
X171801666Y-107500161D01*
X171804500Y-107526519D01*
X171804500Y-109731626D01*
X171784815Y-109798665D01*
X171732011Y-109844420D01*
X171715095Y-109850702D01*
X171626615Y-109876407D01*
X171626612Y-109876409D01*
X171491670Y-109956213D01*
X171491662Y-109956219D01*
X171380816Y-110067065D01*
X171380810Y-110067073D01*
X171301006Y-110202015D01*
X171301005Y-110202018D01*
X171257268Y-110352559D01*
X171257267Y-110352565D01*
X171254500Y-110387727D01*
X171254500Y-110753078D01*
X171257267Y-110788240D01*
X171257268Y-110788246D01*
X171301005Y-110938787D01*
X171301006Y-110938790D01*
X171380810Y-111073732D01*
X171380816Y-111073740D01*
X171491662Y-111184586D01*
X171491666Y-111184589D01*
X171491668Y-111184591D01*
X171626611Y-111264396D01*
X171666313Y-111275930D01*
X171777156Y-111308134D01*
X171777159Y-111308134D01*
X171777161Y-111308135D01*
X171812332Y-111310903D01*
X171812340Y-111310903D01*
X173197660Y-111310903D01*
X173197668Y-111310903D01*
X173232839Y-111308135D01*
X173232841Y-111308134D01*
X173232843Y-111308134D01*
X173272541Y-111296600D01*
X173383389Y-111264396D01*
X173518332Y-111184591D01*
X173629188Y-111073735D01*
X173708993Y-110938792D01*
X173752732Y-110788242D01*
X173755500Y-110753071D01*
X173755500Y-110387735D01*
X173752732Y-110352564D01*
X173708993Y-110202014D01*
X173629188Y-110067071D01*
X173629186Y-110067069D01*
X173629183Y-110067065D01*
X173518337Y-109956219D01*
X173518329Y-109956213D01*
X173383387Y-109876409D01*
X173383384Y-109876407D01*
X173294905Y-109850702D01*
X173236019Y-109813096D01*
X173206813Y-109749623D01*
X173205500Y-109731626D01*
X173205500Y-107297564D01*
X173205726Y-107290088D01*
X173206209Y-107282091D01*
X173208013Y-107267224D01*
X173214358Y-107232606D01*
X173212233Y-107197486D01*
X173212233Y-107182511D01*
X173214358Y-107147394D01*
X173208014Y-107112779D01*
X173206209Y-107097917D01*
X173204086Y-107062804D01*
X173193620Y-107029218D01*
X173190037Y-107014678D01*
X173183697Y-106980076D01*
X173183695Y-106980073D01*
X173183695Y-106980069D01*
X173169249Y-106947974D01*
X173163943Y-106933982D01*
X173153478Y-106900394D01*
X173135270Y-106870276D01*
X173128318Y-106857030D01*
X173113878Y-106824944D01*
X173092174Y-106797242D01*
X173083673Y-106784924D01*
X173065474Y-106754818D01*
X173065471Y-106754814D01*
X171552838Y-105242181D01*
X171519353Y-105180858D01*
X171524337Y-105111166D01*
X171566209Y-105055233D01*
X171631673Y-105030816D01*
X171640519Y-105030500D01*
X185518481Y-105030500D01*
X185585520Y-105050185D01*
X185606162Y-105066819D01*
X188633181Y-108093837D01*
X188666666Y-108155160D01*
X188669500Y-108181518D01*
X188669500Y-109731626D01*
X188649815Y-109798665D01*
X188597011Y-109844420D01*
X188580095Y-109850702D01*
X188491615Y-109876407D01*
X188491612Y-109876409D01*
X188356670Y-109956213D01*
X188356662Y-109956219D01*
X188245816Y-110067065D01*
X188245810Y-110067073D01*
X188166006Y-110202015D01*
X188166005Y-110202018D01*
X188122268Y-110352559D01*
X188122267Y-110352565D01*
X188119500Y-110387727D01*
X188119500Y-110753078D01*
X188122267Y-110788240D01*
X188122268Y-110788246D01*
X188166005Y-110938787D01*
X188166006Y-110938790D01*
X188245810Y-111073732D01*
X188245816Y-111073740D01*
X188356662Y-111184586D01*
X188356666Y-111184589D01*
X188356668Y-111184591D01*
X188491611Y-111264396D01*
X188531313Y-111275930D01*
X188642156Y-111308134D01*
X188642159Y-111308134D01*
X188642161Y-111308135D01*
X188677332Y-111310903D01*
X188677340Y-111310903D01*
X190062660Y-111310903D01*
X190062668Y-111310903D01*
X190097839Y-111308135D01*
X190097841Y-111308134D01*
X190097843Y-111308134D01*
X190137541Y-111296600D01*
X190248389Y-111264396D01*
X190383332Y-111184591D01*
X190494188Y-111073735D01*
X190573993Y-110938792D01*
X190617732Y-110788242D01*
X190620500Y-110753071D01*
X190620500Y-110387735D01*
X190617732Y-110352564D01*
X190573993Y-110202014D01*
X190494188Y-110067071D01*
X190494186Y-110067069D01*
X190494183Y-110067065D01*
X190383337Y-109956219D01*
X190383329Y-109956213D01*
X190248387Y-109876409D01*
X190248384Y-109876407D01*
X190159905Y-109850702D01*
X190101019Y-109813096D01*
X190071813Y-109749623D01*
X190070500Y-109731626D01*
X190070500Y-107864920D01*
X190070726Y-107857432D01*
X190074358Y-107797394D01*
X190063514Y-107738221D01*
X190062387Y-107730815D01*
X190061976Y-107727432D01*
X190055140Y-107671128D01*
X190051548Y-107661656D01*
X190045521Y-107640034D01*
X190043695Y-107630071D01*
X190043693Y-107630063D01*
X190019009Y-107575221D01*
X190016154Y-107568331D01*
X189994818Y-107512070D01*
X189989062Y-107503731D01*
X189978034Y-107484177D01*
X189973881Y-107474949D01*
X189973878Y-107474945D01*
X189973878Y-107474944D01*
X189936788Y-107427603D01*
X189932352Y-107421574D01*
X189898183Y-107372071D01*
X189889586Y-107364455D01*
X189853145Y-107332171D01*
X189847707Y-107327051D01*
X186372940Y-103852283D01*
X186367805Y-103846828D01*
X186327929Y-103801816D01*
X186327924Y-103801812D01*
X186278438Y-103767655D01*
X186272403Y-103763215D01*
X186225060Y-103726124D01*
X186225055Y-103726120D01*
X186215813Y-103721961D01*
X186196266Y-103710936D01*
X186187931Y-103705183D01*
X186187932Y-103705183D01*
X186187930Y-103705182D01*
X186131694Y-103683854D01*
X186124790Y-103680994D01*
X186069932Y-103656305D01*
X186069930Y-103656304D01*
X186059946Y-103654474D01*
X186038343Y-103648451D01*
X186028874Y-103644860D01*
X186028871Y-103644859D01*
X185969171Y-103637610D01*
X185961770Y-103636483D01*
X185902609Y-103625642D01*
X185902603Y-103625642D01*
X185842567Y-103629274D01*
X185835079Y-103629500D01*
X169724927Y-103629500D01*
X169702576Y-103627469D01*
X169692607Y-103625642D01*
X169692603Y-103625642D01*
X169632567Y-103629274D01*
X169625079Y-103629500D01*
X152460075Y-103629500D01*
X152393036Y-103609815D01*
X152347281Y-103557011D01*
X152336077Y-103506194D01*
X152330914Y-102583501D01*
X152330698Y-102544812D01*
X152350007Y-102477665D01*
X152402554Y-102431616D01*
X152454812Y-102420120D01*
X193536499Y-102459880D01*
G37*
%TD.AperFunction*%
%TD*%
M02*
