%TF.GenerationSoftware,KiCad,Pcbnew,7.0.10-1.fc38*%
%TF.CreationDate,2024-02-26T14:13:32+00:00*%
%TF.ProjectId,desk-light,6465736b-2d6c-4696-9768-742e6b696361,rev?*%
%TF.SameCoordinates,Original*%
%TF.FileFunction,Copper,L1,Top*%
%TF.FilePolarity,Positive*%
%FSLAX46Y46*%
G04 Gerber Fmt 4.6, Leading zero omitted, Abs format (unit mm)*
G04 Created by KiCad (PCBNEW 7.0.10-1.fc38) date 2024-02-26 14:13:32*
%MOMM*%
%LPD*%
G01*
G04 APERTURE LIST*
G04 Aperture macros list*
%AMRoundRect*
0 Rectangle with rounded corners*
0 $1 Rounding radius*
0 $2 $3 $4 $5 $6 $7 $8 $9 X,Y pos of 4 corners*
0 Add a 4 corners polygon primitive as box body*
4,1,4,$2,$3,$4,$5,$6,$7,$8,$9,$2,$3,0*
0 Add four circle primitives for the rounded corners*
1,1,$1+$1,$2,$3*
1,1,$1+$1,$4,$5*
1,1,$1+$1,$6,$7*
1,1,$1+$1,$8,$9*
0 Add four rect primitives between the rounded corners*
20,1,$1+$1,$2,$3,$4,$5,0*
20,1,$1+$1,$4,$5,$6,$7,0*
20,1,$1+$1,$6,$7,$8,$9,0*
20,1,$1+$1,$8,$9,$2,$3,0*%
G04 Aperture macros list end*
%TA.AperFunction,ComponentPad*%
%ADD10RoundRect,0.250000X0.625000X-0.350000X0.625000X0.350000X-0.625000X0.350000X-0.625000X-0.350000X0*%
%TD*%
%TA.AperFunction,ComponentPad*%
%ADD11O,1.750000X1.200000*%
%TD*%
%TA.AperFunction,ComponentPad*%
%ADD12RoundRect,0.250000X0.350000X0.625000X-0.350000X0.625000X-0.350000X-0.625000X0.350000X-0.625000X0*%
%TD*%
%TA.AperFunction,ComponentPad*%
%ADD13O,1.200000X1.750000*%
%TD*%
%TA.AperFunction,SMDPad,CuDef*%
%ADD14R,0.406400X0.762000*%
%TD*%
%TA.AperFunction,SMDPad,CuDef*%
%ADD15R,2.438400X1.676400*%
%TD*%
%TA.AperFunction,SMDPad,CuDef*%
%ADD16RoundRect,0.200000X0.275000X-0.200000X0.275000X0.200000X-0.275000X0.200000X-0.275000X-0.200000X0*%
%TD*%
%TA.AperFunction,SMDPad,CuDef*%
%ADD17R,1.005599X1.199998*%
%TD*%
%TA.AperFunction,SMDPad,CuDef*%
%ADD18R,7.289800X2.590800*%
%TD*%
%TA.AperFunction,SMDPad,CuDef*%
%ADD19R,0.812800X1.193800*%
%TD*%
%TA.AperFunction,SMDPad,CuDef*%
%ADD20R,0.762000X1.193800*%
%TD*%
%TA.AperFunction,SMDPad,CuDef*%
%ADD21R,0.711200X1.193800*%
%TD*%
%TA.AperFunction,ComponentPad*%
%ADD22C,0.762000*%
%TD*%
%TA.AperFunction,ComponentPad*%
%ADD23O,1.117600X1.701800*%
%TD*%
%TA.AperFunction,ComponentPad*%
%ADD24C,3.800000*%
%TD*%
%TA.AperFunction,SMDPad,CuDef*%
%ADD25RoundRect,0.243750X-0.456250X0.243750X-0.456250X-0.243750X0.456250X-0.243750X0.456250X0.243750X0*%
%TD*%
%TA.AperFunction,SMDPad,CuDef*%
%ADD26R,0.762000X1.219200*%
%TD*%
%TA.AperFunction,SMDPad,CuDef*%
%ADD27RoundRect,0.250000X-0.475000X0.250000X-0.475000X-0.250000X0.475000X-0.250000X0.475000X0.250000X0*%
%TD*%
%TA.AperFunction,SMDPad,CuDef*%
%ADD28RoundRect,0.250000X0.250000X0.475000X-0.250000X0.475000X-0.250000X-0.475000X0.250000X-0.475000X0*%
%TD*%
%TA.AperFunction,ViaPad*%
%ADD29C,1.000000*%
%TD*%
%TA.AperFunction,ViaPad*%
%ADD30C,0.600000*%
%TD*%
%TA.AperFunction,Conductor*%
%ADD31C,0.400000*%
%TD*%
%TA.AperFunction,Conductor*%
%ADD32C,0.250000*%
%TD*%
G04 APERTURE END LIST*
D10*
%TO.P,J2,1,Pin_1*%
%TO.N,Net-(J2-Pin_1)*%
X103900000Y-114880000D03*
D11*
%TO.P,J2,2,Pin_2*%
%TO.N,GND*%
X103900000Y-112880000D03*
%TD*%
D12*
%TO.P,J3,1,Pin_1*%
%TO.N,+5V*%
X127230000Y-118810000D03*
D13*
%TO.P,J3,2,Pin_2*%
%TO.N,Net-(J2-Pin_1)*%
X125230000Y-118810000D03*
%TD*%
D14*
%TO.P,U1,1,SW*%
%TO.N,Net-(D1-A)*%
X139269998Y-110350000D03*
%TO.P,U1,2,GND*%
%TO.N,GND*%
X140219999Y-110350000D03*
%TO.P,U1,3,CTRL*%
%TO.N,unconnected-(U1-CTRL-Pad3)*%
X141170000Y-110350000D03*
%TO.P,U1,4,SET*%
%TO.N,LED_IN*%
X141170000Y-107454400D03*
%TO.P,U1,5,GND*%
%TO.N,GND*%
X140219999Y-107454400D03*
%TO.P,U1,6,VIN*%
%TO.N,+5V*%
X139269998Y-107454400D03*
D15*
%TO.P,U1,7,GND*%
%TO.N,GND*%
X140219999Y-108902200D03*
%TD*%
D16*
%TO.P,R3,1*%
%TO.N,LED_IN*%
X144380000Y-107430000D03*
%TO.P,R3,2*%
%TO.N,+5V*%
X144380000Y-105780000D03*
%TD*%
D17*
%TO.P,R2,1*%
%TO.N,GND*%
X109314403Y-113000006D03*
%TO.P,R2,2*%
%TO.N,Net-(J1-CC2)*%
X111020001Y-113000006D03*
%TD*%
%TO.P,R1,1*%
%TO.N,GND*%
X114625599Y-113000006D03*
%TO.P,R1,2*%
%TO.N,Net-(J1-CC1)*%
X112920001Y-113000006D03*
%TD*%
D18*
%TO.P,L1,1,1*%
%TO.N,Net-(D1-A)*%
X139280000Y-114710000D03*
%TO.P,L1,2,2*%
%TO.N,LED_OUT*%
X139280000Y-119409000D03*
%TD*%
D19*
%TO.P,J1,1,GND*%
%TO.N,GND*%
X114269993Y-106010006D03*
D20*
%TO.P,J1,2,VBUS*%
%TO.N,Net-(F1-Pad1)*%
X113039995Y-106010006D03*
D21*
%TO.P,J1,3,CC1*%
%TO.N,Net-(J1-CC1)*%
X112019997Y-106010006D03*
%TO.P,J1,4,CC2*%
%TO.N,Net-(J1-CC2)*%
X111019999Y-106010006D03*
D20*
%TO.P,J1,5,VBUS*%
%TO.N,Net-(F1-Pad1)*%
X110000001Y-106010006D03*
D19*
%TO.P,J1,6,GND*%
%TO.N,GND*%
X108770003Y-106010006D03*
D22*
%TO.P,J1,13*%
%TO.N,N/C*%
X115840000Y-102210000D03*
D23*
%TO.P,J1,8,PAD*%
%TO.N,GND*%
X115840000Y-102210000D03*
%TO.P,J1,7,PAD*%
X115840000Y-106010000D03*
%TO.P,J1,9,PAD*%
X107199996Y-106010000D03*
%TO.P,J1,10,PAD*%
X107199996Y-102210000D03*
%TD*%
D24*
%TO.P,H4,1*%
%TO.N,N/C*%
X197000000Y-122000000D03*
%TD*%
%TO.P,H3,1*%
%TO.N,N/C*%
X197000000Y-103000000D03*
%TD*%
%TO.P,H2,1*%
%TO.N,N/C*%
X103000000Y-122000000D03*
%TD*%
%TO.P,H1,1*%
%TO.N,N/C*%
X103000000Y-103000000D03*
%TD*%
D25*
%TO.P,F1,1*%
%TO.N,Net-(F1-Pad1)*%
X118040001Y-112715006D03*
%TO.P,F1,2*%
%TO.N,Net-(J2-Pin_1)*%
X118040001Y-114590006D03*
%TD*%
D26*
%TO.P,D1,2,A*%
%TO.N,Net-(D1-A)*%
X130750000Y-107636400D03*
%TO.P,D1,1,K*%
%TO.N,+5V*%
X130750000Y-104283600D03*
%TD*%
D27*
%TO.P,C2,1*%
%TO.N,+5V*%
X137060000Y-106890000D03*
%TO.P,C2,2*%
%TO.N,GND*%
X137060000Y-108790000D03*
%TD*%
D28*
%TO.P,C1,1*%
%TO.N,Net-(J2-Pin_1)*%
X118130001Y-118670006D03*
%TO.P,C1,2*%
%TO.N,GND*%
X116230001Y-118670006D03*
%TD*%
D29*
%TO.N,LED_OUT*%
X183730000Y-113350000D03*
X184490000Y-116570000D03*
X180240000Y-117030000D03*
X176420000Y-116760000D03*
X178330000Y-113120000D03*
X179710000Y-109830000D03*
X183150000Y-110020000D03*
X184220000Y-107380000D03*
X178520000Y-107000000D03*
X167620000Y-111100000D03*
X165890000Y-116910000D03*
X159770000Y-117410000D03*
X163560000Y-114500000D03*
X164060000Y-110370000D03*
X164210000Y-107380000D03*
X151710000Y-119400000D03*
%TO.N,LED_IN*%
X150400000Y-104330000D03*
%TO.N,GND*%
X108430000Y-109930000D03*
X112540000Y-119000000D03*
%TO.N,+5V*%
X124190000Y-106120000D03*
X134050000Y-106880000D03*
%TO.N,GND*%
X134070000Y-108740000D03*
D30*
X140780000Y-108950000D03*
X139670000Y-108950000D03*
D29*
X146180000Y-111930000D03*
X143530000Y-111830000D03*
X140220000Y-105580000D03*
X104140001Y-109150006D03*
X118460001Y-109500006D03*
X109300001Y-115770006D03*
X114650001Y-115840006D03*
%TD*%
D31*
%TO.N,LED_OUT*%
X151659000Y-119409000D02*
X151650000Y-119409000D01*
X151710000Y-119400000D02*
X151659000Y-119409000D01*
X151641000Y-119409000D02*
X151710000Y-119400000D01*
%TO.N,LED_IN*%
X150400000Y-104260000D02*
X150390000Y-104270000D01*
X150400000Y-104330000D02*
X150400000Y-104260000D01*
X150330000Y-104330000D02*
X150400000Y-104330000D01*
%TO.N,Net-(J2-Pin_1)*%
X103900000Y-114880000D02*
X105860006Y-116840006D01*
X105860006Y-116840006D02*
X115790001Y-116840006D01*
X115790001Y-116840006D02*
X118040001Y-114590006D01*
%TO.N,GND*%
X108460000Y-109930000D02*
X108430000Y-109960000D01*
X108430000Y-109930000D02*
X108460000Y-109930000D01*
X108430000Y-109960000D02*
X108430000Y-109930000D01*
X105510000Y-112880000D02*
X108430000Y-109960000D01*
X103900000Y-112880000D02*
X105510000Y-112880000D01*
%TO.N,Net-(J2-Pin_1)*%
X118130001Y-118670006D02*
X125090006Y-118670006D01*
%TO.N,+5V*%
X127230000Y-118810000D02*
X127230000Y-109160000D01*
%TO.N,GND*%
X112520000Y-119000000D02*
X112480000Y-119040000D01*
X112540000Y-119000000D02*
X112520000Y-119000000D01*
X112540000Y-118980000D02*
X112540000Y-119000000D01*
X112849994Y-118670006D02*
X112540000Y-118980000D01*
X116230001Y-118670006D02*
X112849994Y-118670006D01*
%TO.N,+5V*%
X127230000Y-109160000D02*
X124190000Y-106120000D01*
%TO.N,Net-(J2-Pin_1)*%
X125090006Y-118670006D02*
X125230000Y-118810000D01*
%TO.N,Net-(F1-Pad1)*%
X113039995Y-106010006D02*
X113039995Y-104669995D01*
X113039995Y-104669995D02*
X112470000Y-104100000D01*
X112470000Y-104100000D02*
X110350000Y-104100000D01*
X110350000Y-104100000D02*
X110000001Y-104449999D01*
X110000001Y-104449999D02*
X110000001Y-106010006D01*
%TO.N,GND*%
X114269993Y-106010006D02*
X114269993Y-104239993D01*
X114269993Y-104239993D02*
X112440000Y-102410000D01*
X112440000Y-102410000D02*
X110310000Y-102410000D01*
X110310000Y-102410000D02*
X108770003Y-103949997D01*
X108770003Y-103949997D02*
X108770003Y-106010006D01*
%TO.N,+5V*%
X124200000Y-106110000D02*
X128923600Y-106110000D01*
X124190000Y-106120000D02*
X124200000Y-106110000D01*
X124180000Y-106110000D02*
X124190000Y-106120000D01*
%TO.N,Net-(D1-A)*%
X130750000Y-107636400D02*
X133463600Y-110350000D01*
X133463600Y-110350000D02*
X139269998Y-110350000D01*
%TO.N,+5V*%
X130750000Y-104283600D02*
X142883600Y-104283600D01*
X142883600Y-104283600D02*
X144380000Y-105780000D01*
X128923600Y-106110000D02*
X130750000Y-104283600D01*
X134060000Y-106890000D02*
X134070000Y-106890000D01*
X134050000Y-106880000D02*
X134060000Y-106890000D01*
X134080000Y-106890000D02*
X134050000Y-106880000D01*
X137060000Y-106890000D02*
X134080000Y-106890000D01*
X137060000Y-106890000D02*
X138705598Y-106890000D01*
X138705598Y-106890000D02*
X139269998Y-107454400D01*
%TO.N,GND*%
X134040000Y-108740000D02*
X134070000Y-108770000D01*
X134070000Y-108740000D02*
X134040000Y-108740000D01*
X134070000Y-108770000D02*
X134070000Y-108740000D01*
X134090000Y-108790000D02*
X134070000Y-108770000D01*
X137060000Y-108790000D02*
X134090000Y-108790000D01*
%TO.N,Net-(D1-A)*%
X139269998Y-110350000D02*
X139269998Y-114699998D01*
X139269998Y-114699998D02*
X139280000Y-114710000D01*
%TO.N,LED_OUT*%
X139280000Y-119409000D02*
X151641000Y-119409000D01*
%TO.N,GND*%
X140267799Y-108902200D02*
X143152200Y-108902200D01*
X139670000Y-108950000D02*
X140267799Y-108902200D01*
X140172199Y-108902200D02*
X139670000Y-108950000D01*
X146180000Y-111930000D02*
X146230000Y-111980000D01*
X143152200Y-108902200D02*
X146180000Y-111930000D01*
X140219999Y-108902200D02*
X140172199Y-108902200D01*
X143540000Y-111840000D02*
X143610000Y-111840000D01*
X143530000Y-111830000D02*
X143540000Y-111840000D01*
X143520000Y-111840000D02*
X143530000Y-111830000D01*
X140928999Y-111840000D02*
X143520000Y-111840000D01*
X140219999Y-111131000D02*
X140928999Y-111840000D01*
X140219999Y-110350000D02*
X140219999Y-111131000D01*
X140220000Y-105580000D02*
X140220000Y-105640000D01*
X140219999Y-107454400D02*
X140220000Y-105580000D01*
%TO.N,LED_IN*%
X144380000Y-107430000D02*
X147230000Y-107430000D01*
X147230000Y-107430000D02*
X150330000Y-104330000D01*
X141170000Y-107454400D02*
X144355600Y-107454400D01*
X144355600Y-107454400D02*
X144380000Y-107430000D01*
%TO.N,GND*%
X104140001Y-109150006D02*
X104220001Y-109150006D01*
X108770003Y-106010006D02*
X108770003Y-106660004D01*
X108770003Y-106660004D02*
X106280001Y-109150006D01*
X106280001Y-109150006D02*
X104140001Y-109150006D01*
X114269993Y-106010006D02*
X114269993Y-106899998D01*
X114269993Y-106899998D02*
X116870001Y-109500006D01*
X116870001Y-109500006D02*
X118460001Y-109500006D01*
X109314403Y-115784408D02*
X109314403Y-115874408D01*
X109300001Y-115770006D02*
X109314403Y-115784408D01*
X109314403Y-115755604D02*
X109300001Y-115770006D01*
X114600001Y-115840006D02*
X114620001Y-115820006D01*
X114650001Y-115840006D02*
X114600001Y-115840006D01*
X114650001Y-115790006D02*
X114650001Y-115840006D01*
X114625599Y-115814408D02*
X114650001Y-115790006D01*
X114625599Y-113000006D02*
X114625599Y-115814408D01*
X109314403Y-115874408D02*
X109330001Y-115890006D01*
X109314403Y-113000006D02*
X109314403Y-115755604D01*
%TO.N,Net-(J2-Pin_1)*%
X118040001Y-114590006D02*
X118040001Y-118580006D01*
X118040001Y-118580006D02*
X118130001Y-118670006D01*
%TO.N,Net-(F1-Pad1)*%
X113039995Y-106010006D02*
X113039995Y-107715000D01*
X113039995Y-107715000D02*
X118040001Y-112715006D01*
D32*
%TO.N,Net-(J1-CC2)*%
X111019999Y-106010006D02*
X111019999Y-113000004D01*
X111019999Y-113000004D02*
X111020001Y-113000006D01*
%TO.N,Net-(J1-CC1)*%
X112019997Y-106010006D02*
X112019997Y-112100002D01*
X112019997Y-112100002D02*
X112920001Y-113000006D01*
%TD*%
%TA.AperFunction,Conductor*%
%TO.N,GND*%
G36*
X199625451Y-100329987D02*
G01*
X199692488Y-100349678D01*
X199738238Y-100402487D01*
X199749437Y-100454547D01*
X199652234Y-121980602D01*
X199648172Y-121994205D01*
X199648977Y-121995648D01*
X199652040Y-122023604D01*
X199640556Y-124566745D01*
X199620569Y-124633695D01*
X199567559Y-124679211D01*
X199516744Y-124690185D01*
X100285664Y-124839810D01*
X100218595Y-124820226D01*
X100172760Y-124767491D01*
X100161486Y-124714344D01*
X100171670Y-123853272D01*
X100193589Y-122000005D01*
X100594754Y-122000005D01*
X100613718Y-122301446D01*
X100613719Y-122301453D01*
X100670320Y-122598164D01*
X100763659Y-122885431D01*
X100763661Y-122885436D01*
X100892265Y-123158732D01*
X100892268Y-123158738D01*
X101054111Y-123413763D01*
X101246652Y-123646505D01*
X101466836Y-123853272D01*
X101466846Y-123853280D01*
X101711193Y-124030808D01*
X101711198Y-124030810D01*
X101711205Y-124030816D01*
X101975896Y-124176332D01*
X101975901Y-124176334D01*
X101975903Y-124176335D01*
X101975904Y-124176336D01*
X102256734Y-124287524D01*
X102256737Y-124287525D01*
X102354259Y-124312564D01*
X102549302Y-124362642D01*
X102696039Y-124381179D01*
X102848963Y-124400499D01*
X102848969Y-124400499D01*
X102848973Y-124400500D01*
X102848975Y-124400500D01*
X103151025Y-124400500D01*
X103151027Y-124400500D01*
X103151032Y-124400499D01*
X103151036Y-124400499D01*
X103230591Y-124390448D01*
X103450698Y-124362642D01*
X103743262Y-124287525D01*
X103743265Y-124287524D01*
X104024095Y-124176336D01*
X104024096Y-124176335D01*
X104024094Y-124176335D01*
X104024104Y-124176332D01*
X104288795Y-124030816D01*
X104533162Y-123853274D01*
X104753349Y-123646504D01*
X104945885Y-123413768D01*
X105107733Y-123158736D01*
X105236341Y-122885430D01*
X105329681Y-122598160D01*
X105386280Y-122301457D01*
X105387311Y-122285075D01*
X105405246Y-122000005D01*
X105405246Y-121999994D01*
X105386281Y-121698553D01*
X105386280Y-121698546D01*
X105386280Y-121698543D01*
X105329681Y-121401840D01*
X105236341Y-121114570D01*
X105107733Y-120841264D01*
X104945885Y-120586232D01*
X104753349Y-120353496D01*
X104727065Y-120328814D01*
X104578450Y-120189254D01*
X104533162Y-120146726D01*
X104533159Y-120146724D01*
X104533153Y-120146719D01*
X104288806Y-119969191D01*
X104288799Y-119969186D01*
X104288795Y-119969184D01*
X104024104Y-119823668D01*
X104024101Y-119823666D01*
X104024096Y-119823664D01*
X104024095Y-119823663D01*
X103743265Y-119712475D01*
X103743262Y-119712474D01*
X103450695Y-119637357D01*
X103151036Y-119599500D01*
X103151027Y-119599500D01*
X102848973Y-119599500D01*
X102848963Y-119599500D01*
X102549304Y-119637357D01*
X102256737Y-119712474D01*
X102256734Y-119712475D01*
X101975904Y-119823663D01*
X101975903Y-119823664D01*
X101711205Y-119969184D01*
X101711193Y-119969191D01*
X101466846Y-120146719D01*
X101466836Y-120146727D01*
X101246652Y-120353494D01*
X101054111Y-120586236D01*
X100892268Y-120841261D01*
X100892265Y-120841267D01*
X100763661Y-121114563D01*
X100763659Y-121114568D01*
X100670320Y-121401835D01*
X100613719Y-121698546D01*
X100613718Y-121698553D01*
X100594754Y-121999994D01*
X100594754Y-122000005D01*
X100193589Y-122000005D01*
X100230016Y-118920006D01*
X115230002Y-118920006D01*
X115230002Y-119194992D01*
X115240495Y-119297703D01*
X115295642Y-119464125D01*
X115295644Y-119464130D01*
X115387685Y-119613351D01*
X115511655Y-119737321D01*
X115660876Y-119829362D01*
X115660881Y-119829364D01*
X115827303Y-119884511D01*
X115827310Y-119884512D01*
X115930020Y-119895005D01*
X115980000Y-119895004D01*
X115980001Y-119895004D01*
X115980001Y-118920006D01*
X115230002Y-118920006D01*
X100230016Y-118920006D01*
X100273067Y-115280001D01*
X102524500Y-115280001D01*
X102524501Y-115280019D01*
X102535000Y-115382796D01*
X102535001Y-115382799D01*
X102547837Y-115421534D01*
X102590186Y-115549334D01*
X102682288Y-115698656D01*
X102806344Y-115822712D01*
X102955666Y-115914814D01*
X103122203Y-115969999D01*
X103224991Y-115980500D01*
X103958480Y-115980499D01*
X104025519Y-116000183D01*
X104046161Y-116016818D01*
X105347064Y-117317721D01*
X105352184Y-117323159D01*
X105392077Y-117368189D01*
X105441583Y-117402361D01*
X105447603Y-117406791D01*
X105490943Y-117440746D01*
X105494949Y-117443884D01*
X105501851Y-117446990D01*
X105504188Y-117448042D01*
X105523739Y-117459069D01*
X105526038Y-117460656D01*
X105532077Y-117464825D01*
X105588303Y-117486148D01*
X105595218Y-117489012D01*
X105650074Y-117513701D01*
X105660048Y-117515528D01*
X105681662Y-117521554D01*
X105684783Y-117522737D01*
X105691134Y-117525146D01*
X105748247Y-117532080D01*
X105750820Y-117532393D01*
X105758225Y-117533520D01*
X105779179Y-117537359D01*
X105817400Y-117544364D01*
X105877439Y-117540731D01*
X105884927Y-117540506D01*
X115280331Y-117540506D01*
X115347370Y-117560191D01*
X115393125Y-117612995D01*
X115403069Y-117682153D01*
X115385870Y-117729603D01*
X115295644Y-117875881D01*
X115295642Y-117875886D01*
X115240495Y-118042308D01*
X115240494Y-118042315D01*
X115230001Y-118145019D01*
X115230001Y-118420006D01*
X116356001Y-118420006D01*
X116423040Y-118439691D01*
X116468795Y-118492495D01*
X116480001Y-118544006D01*
X116480001Y-119895005D01*
X116529973Y-119895005D01*
X116529987Y-119895004D01*
X116632698Y-119884511D01*
X116799120Y-119829364D01*
X116799125Y-119829362D01*
X116948346Y-119737321D01*
X117072319Y-119613348D01*
X117074166Y-119610354D01*
X117075970Y-119608730D01*
X117076799Y-119607683D01*
X117076977Y-119607824D01*
X117126111Y-119563627D01*
X117195074Y-119552402D01*
X117259157Y-119580242D01*
X117285244Y-119610347D01*
X117287289Y-119613662D01*
X117411345Y-119737718D01*
X117560667Y-119829820D01*
X117727204Y-119885005D01*
X117829992Y-119895506D01*
X118430009Y-119895505D01*
X118430017Y-119895504D01*
X118430020Y-119895504D01*
X118486303Y-119889754D01*
X118532798Y-119885005D01*
X118699335Y-119829820D01*
X118848657Y-119737718D01*
X118972713Y-119613662D01*
X119064815Y-119464340D01*
X119067745Y-119455499D01*
X119107519Y-119398055D01*
X119172036Y-119371234D01*
X119185450Y-119370506D01*
X124074047Y-119370506D01*
X124141086Y-119390191D01*
X124186841Y-119442995D01*
X124193024Y-119459571D01*
X124203682Y-119495871D01*
X124203683Y-119495874D01*
X124203684Y-119495875D01*
X124238612Y-119563627D01*
X124299991Y-119682686D01*
X124429905Y-119847883D01*
X124429909Y-119847887D01*
X124588746Y-119985521D01*
X124770750Y-120090601D01*
X124770752Y-120090601D01*
X124770756Y-120090604D01*
X124969367Y-120159344D01*
X125177398Y-120189254D01*
X125387330Y-120179254D01*
X125591576Y-120129704D01*
X125677199Y-120090601D01*
X125782743Y-120042401D01*
X125782746Y-120042399D01*
X125782753Y-120042396D01*
X125953952Y-119920486D01*
X126051751Y-119817916D01*
X126112258Y-119782983D01*
X126182049Y-119786307D01*
X126238963Y-119826835D01*
X126247030Y-119838388D01*
X126287288Y-119903656D01*
X126411344Y-120027712D01*
X126560666Y-120119814D01*
X126727203Y-120174999D01*
X126829991Y-120185500D01*
X127630008Y-120185499D01*
X127630016Y-120185498D01*
X127630019Y-120185498D01*
X127691143Y-120179254D01*
X127732797Y-120174999D01*
X127899334Y-120119814D01*
X128048656Y-120027712D01*
X128172712Y-119903656D01*
X128264814Y-119754334D01*
X128319999Y-119587797D01*
X128330500Y-119485009D01*
X128330499Y-118134992D01*
X128319999Y-118032203D01*
X128264814Y-117865666D01*
X128172712Y-117716344D01*
X128048656Y-117592288D01*
X128048655Y-117592287D01*
X127989402Y-117555739D01*
X127942678Y-117503791D01*
X127930500Y-117450201D01*
X127930500Y-109184908D01*
X127930726Y-109177421D01*
X127934357Y-109117394D01*
X127934356Y-109117391D01*
X127923516Y-109058235D01*
X127922389Y-109050830D01*
X127915140Y-108991129D01*
X127915139Y-108991125D01*
X127911546Y-108981651D01*
X127905519Y-108960029D01*
X127903694Y-108950070D01*
X127903694Y-108950068D01*
X127879010Y-108895223D01*
X127876149Y-108888317D01*
X127854818Y-108832070D01*
X127849058Y-108823726D01*
X127838035Y-108804180D01*
X127833878Y-108794943D01*
X127796763Y-108747569D01*
X127792345Y-108741563D01*
X127758185Y-108692073D01*
X127755615Y-108689796D01*
X127713153Y-108652178D01*
X127707715Y-108647058D01*
X127354527Y-108293870D01*
X129868500Y-108293870D01*
X129868501Y-108293876D01*
X129874908Y-108353483D01*
X129925202Y-108488328D01*
X129925206Y-108488335D01*
X130011452Y-108603544D01*
X130011455Y-108603547D01*
X130126664Y-108689793D01*
X130126671Y-108689797D01*
X130171618Y-108706561D01*
X130261517Y-108740091D01*
X130321127Y-108746500D01*
X130818080Y-108746499D01*
X130885119Y-108766183D01*
X130905761Y-108782818D01*
X132950658Y-110827715D01*
X132955778Y-110833153D01*
X132995671Y-110878183D01*
X133045177Y-110912355D01*
X133051197Y-110916785D01*
X133098543Y-110953878D01*
X133105445Y-110956984D01*
X133107782Y-110958036D01*
X133127333Y-110969063D01*
X133135670Y-110974818D01*
X133191929Y-110996153D01*
X133198806Y-110999002D01*
X133220332Y-111008691D01*
X133253663Y-111023693D01*
X133253666Y-111023693D01*
X133253669Y-111023695D01*
X133263634Y-111025521D01*
X133285256Y-111031548D01*
X133288377Y-111032731D01*
X133294728Y-111035140D01*
X133352289Y-111042128D01*
X133354415Y-111042387D01*
X133361822Y-111043514D01*
X133420994Y-111054358D01*
X133481033Y-111050725D01*
X133488521Y-111050500D01*
X138445498Y-111050500D01*
X138512537Y-111070185D01*
X138558292Y-111122989D01*
X138569498Y-111174500D01*
X138569498Y-112790100D01*
X138549813Y-112857139D01*
X138497009Y-112902894D01*
X138445498Y-112914100D01*
X135587229Y-112914100D01*
X135587223Y-112914101D01*
X135527616Y-112920508D01*
X135392771Y-112970802D01*
X135392764Y-112970806D01*
X135277555Y-113057052D01*
X135277552Y-113057055D01*
X135191306Y-113172264D01*
X135191302Y-113172271D01*
X135141008Y-113307117D01*
X135134601Y-113366716D01*
X135134601Y-113366723D01*
X135134600Y-113366735D01*
X135134600Y-116053270D01*
X135134601Y-116053276D01*
X135141008Y-116112883D01*
X135191302Y-116247728D01*
X135191306Y-116247735D01*
X135277552Y-116362944D01*
X135277555Y-116362947D01*
X135392764Y-116449193D01*
X135392771Y-116449197D01*
X135437718Y-116465961D01*
X135527617Y-116499491D01*
X135575158Y-116504602D01*
X135639706Y-116531339D01*
X135679554Y-116588732D01*
X135685900Y-116627891D01*
X135685900Y-117491108D01*
X135666215Y-117558147D01*
X135613411Y-117603902D01*
X135575155Y-117614397D01*
X135527620Y-117619507D01*
X135392771Y-117669802D01*
X135392764Y-117669806D01*
X135277555Y-117756052D01*
X135277552Y-117756055D01*
X135191306Y-117871264D01*
X135191302Y-117871271D01*
X135141008Y-118006117D01*
X135137117Y-118042315D01*
X135134601Y-118065723D01*
X135134600Y-118065735D01*
X135134600Y-120752270D01*
X135134601Y-120752276D01*
X135141008Y-120811883D01*
X135191302Y-120946728D01*
X135191306Y-120946735D01*
X135277552Y-121061944D01*
X135277555Y-121061947D01*
X135392764Y-121148193D01*
X135392771Y-121148197D01*
X135527617Y-121198491D01*
X135527616Y-121198491D01*
X135534544Y-121199235D01*
X135587227Y-121204900D01*
X142972772Y-121204899D01*
X143032383Y-121198491D01*
X143167231Y-121148196D01*
X143282446Y-121061946D01*
X143368696Y-120946731D01*
X143418991Y-120811883D01*
X143425400Y-120752273D01*
X143425400Y-120233500D01*
X143445085Y-120166461D01*
X143497889Y-120120706D01*
X143549400Y-120109500D01*
X150953063Y-120109500D01*
X151020102Y-120129185D01*
X151031728Y-120137647D01*
X151151460Y-120235909D01*
X151151467Y-120235913D01*
X151325268Y-120328812D01*
X151325270Y-120328812D01*
X151325273Y-120328814D01*
X151445623Y-120365322D01*
X151504061Y-120403619D01*
X151532517Y-120467431D01*
X151533624Y-120484843D01*
X151525381Y-121671214D01*
X151536724Y-121781274D01*
X151548089Y-121833993D01*
X151548093Y-121834005D01*
X151583098Y-121938942D01*
X151646748Y-122037287D01*
X151661275Y-122059731D01*
X151707200Y-122112388D01*
X151707203Y-122112391D01*
X151816243Y-122206261D01*
X151816244Y-122206261D01*
X151816246Y-122206263D01*
X151898746Y-122243617D01*
X151947314Y-122265609D01*
X152014416Y-122285077D01*
X152156893Y-122305093D01*
X192306755Y-122175898D01*
X192415892Y-122163617D01*
X192468155Y-122151880D01*
X192572078Y-122116310D01*
X192692316Y-122037287D01*
X192734462Y-122000005D01*
X194594754Y-122000005D01*
X194613718Y-122301446D01*
X194613719Y-122301453D01*
X194670320Y-122598164D01*
X194763659Y-122885431D01*
X194763661Y-122885436D01*
X194892265Y-123158732D01*
X194892268Y-123158738D01*
X195054111Y-123413763D01*
X195246652Y-123646505D01*
X195466836Y-123853272D01*
X195466846Y-123853280D01*
X195711193Y-124030808D01*
X195711198Y-124030810D01*
X195711205Y-124030816D01*
X195975896Y-124176332D01*
X195975901Y-124176334D01*
X195975903Y-124176335D01*
X195975904Y-124176336D01*
X196256734Y-124287524D01*
X196256737Y-124287525D01*
X196354259Y-124312564D01*
X196549302Y-124362642D01*
X196696039Y-124381179D01*
X196848963Y-124400499D01*
X196848969Y-124400499D01*
X196848973Y-124400500D01*
X196848975Y-124400500D01*
X197151025Y-124400500D01*
X197151027Y-124400500D01*
X197151032Y-124400499D01*
X197151036Y-124400499D01*
X197230591Y-124390448D01*
X197450698Y-124362642D01*
X197743262Y-124287525D01*
X197743265Y-124287524D01*
X198024095Y-124176336D01*
X198024096Y-124176335D01*
X198024094Y-124176335D01*
X198024104Y-124176332D01*
X198288795Y-124030816D01*
X198533162Y-123853274D01*
X198753349Y-123646504D01*
X198945885Y-123413768D01*
X199107733Y-123158736D01*
X199236341Y-122885430D01*
X199329681Y-122598160D01*
X199386280Y-122301457D01*
X199388536Y-122265609D01*
X199404286Y-122015258D01*
X199407639Y-122006024D01*
X199404480Y-121987828D01*
X199404025Y-121980602D01*
X199397779Y-121881308D01*
X199386281Y-121698553D01*
X199386280Y-121698546D01*
X199386280Y-121698543D01*
X199329681Y-121401840D01*
X199236341Y-121114570D01*
X199107733Y-120841264D01*
X198945885Y-120586232D01*
X198753349Y-120353496D01*
X198727065Y-120328814D01*
X198578450Y-120189254D01*
X198533162Y-120146726D01*
X198533159Y-120146724D01*
X198533153Y-120146719D01*
X198288806Y-119969191D01*
X198288799Y-119969186D01*
X198288795Y-119969184D01*
X198024104Y-119823668D01*
X198024101Y-119823666D01*
X198024096Y-119823664D01*
X198024095Y-119823663D01*
X197743265Y-119712475D01*
X197743262Y-119712474D01*
X197450695Y-119637357D01*
X197151036Y-119599500D01*
X197151027Y-119599500D01*
X196848973Y-119599500D01*
X196848963Y-119599500D01*
X196549304Y-119637357D01*
X196256737Y-119712474D01*
X196256734Y-119712475D01*
X195975904Y-119823663D01*
X195975903Y-119823664D01*
X195711205Y-119969184D01*
X195711193Y-119969191D01*
X195466846Y-120146719D01*
X195466836Y-120146727D01*
X195246652Y-120353494D01*
X195054111Y-120586236D01*
X194892268Y-120841261D01*
X194892265Y-120841267D01*
X194763661Y-121114563D01*
X194763659Y-121114568D01*
X194670320Y-121401835D01*
X194613719Y-121698546D01*
X194613718Y-121698553D01*
X194594754Y-121999994D01*
X194594754Y-122000005D01*
X192734462Y-122000005D01*
X192744649Y-121990994D01*
X192837746Y-121881308D01*
X192896177Y-121749827D01*
X192907799Y-121708694D01*
X192915177Y-121682589D01*
X192916694Y-121671214D01*
X192934197Y-121539965D01*
X192746729Y-103207563D01*
X192734645Y-103102747D01*
X192723445Y-103052504D01*
X192705822Y-103000005D01*
X194594754Y-103000005D01*
X194613718Y-103301446D01*
X194613719Y-103301453D01*
X194635353Y-103414860D01*
X194670318Y-103598157D01*
X194670320Y-103598164D01*
X194763659Y-103885431D01*
X194763661Y-103885436D01*
X194892265Y-104158732D01*
X194892268Y-104158738D01*
X195054111Y-104413763D01*
X195054114Y-104413767D01*
X195054115Y-104413768D01*
X195126381Y-104501123D01*
X195246652Y-104646505D01*
X195466836Y-104853272D01*
X195466846Y-104853280D01*
X195711193Y-105030808D01*
X195711198Y-105030810D01*
X195711205Y-105030816D01*
X195975896Y-105176332D01*
X195975901Y-105176334D01*
X195975903Y-105176335D01*
X195975904Y-105176336D01*
X196256734Y-105287524D01*
X196256737Y-105287525D01*
X196310778Y-105301400D01*
X196549302Y-105362642D01*
X196696039Y-105381179D01*
X196848963Y-105400499D01*
X196848969Y-105400499D01*
X196848973Y-105400500D01*
X196848975Y-105400500D01*
X197151025Y-105400500D01*
X197151027Y-105400500D01*
X197151032Y-105400499D01*
X197151036Y-105400499D01*
X197255585Y-105387291D01*
X197450698Y-105362642D01*
X197743262Y-105287525D01*
X197751948Y-105284086D01*
X198024095Y-105176336D01*
X198024096Y-105176335D01*
X198024094Y-105176335D01*
X198024104Y-105176332D01*
X198288795Y-105030816D01*
X198533162Y-104853274D01*
X198753349Y-104646504D01*
X198945885Y-104413768D01*
X199107733Y-104158736D01*
X199236341Y-103885430D01*
X199329681Y-103598160D01*
X199386280Y-103301457D01*
X199392058Y-103209618D01*
X199405246Y-103000005D01*
X199405246Y-102999994D01*
X199386281Y-102698553D01*
X199386280Y-102698546D01*
X199386280Y-102698543D01*
X199329681Y-102401840D01*
X199236341Y-102114570D01*
X199232123Y-102105607D01*
X199161795Y-101956151D01*
X199107733Y-101841264D01*
X198945885Y-101586232D01*
X198753349Y-101353496D01*
X198533162Y-101146726D01*
X198533159Y-101146724D01*
X198533153Y-101146719D01*
X198288806Y-100969191D01*
X198288799Y-100969186D01*
X198288795Y-100969184D01*
X198024104Y-100823668D01*
X198024101Y-100823666D01*
X198024096Y-100823664D01*
X198024095Y-100823663D01*
X197743265Y-100712475D01*
X197743262Y-100712474D01*
X197450695Y-100637357D01*
X197151036Y-100599500D01*
X197151027Y-100599500D01*
X196848973Y-100599500D01*
X196848963Y-100599500D01*
X196549304Y-100637357D01*
X196256737Y-100712474D01*
X196256734Y-100712475D01*
X195975904Y-100823663D01*
X195975903Y-100823664D01*
X195711205Y-100969184D01*
X195711193Y-100969191D01*
X195466846Y-101146719D01*
X195466836Y-101146727D01*
X195246652Y-101353494D01*
X195054111Y-101586236D01*
X194892268Y-101841261D01*
X194892265Y-101841267D01*
X194763661Y-102114563D01*
X194763659Y-102114568D01*
X194670320Y-102401835D01*
X194613719Y-102698546D01*
X194613718Y-102698553D01*
X194594754Y-102999994D01*
X194594754Y-103000005D01*
X192705822Y-103000005D01*
X192689874Y-102952496D01*
X192612086Y-102831457D01*
X192612081Y-102831451D01*
X192566337Y-102778659D01*
X192566333Y-102778656D01*
X192566331Y-102778653D01*
X192457597Y-102684433D01*
X192457594Y-102684431D01*
X192457592Y-102684430D01*
X192326726Y-102624664D01*
X192326721Y-102624662D01*
X192326720Y-102624662D01*
X192264980Y-102606533D01*
X192259678Y-102604976D01*
X192212205Y-102598150D01*
X192117261Y-102584500D01*
X152283141Y-102584500D01*
X152283132Y-102584500D01*
X152177410Y-102595680D01*
X152126691Y-102606529D01*
X152126674Y-102606533D01*
X152025619Y-102639583D01*
X151904050Y-102716524D01*
X151904044Y-102716528D01*
X151850923Y-102761916D01*
X151755951Y-102869992D01*
X151755949Y-102869995D01*
X151695273Y-103000448D01*
X151695272Y-103000452D01*
X151675124Y-103067344D01*
X151675123Y-103067347D01*
X151675120Y-103067363D01*
X151653656Y-103209618D01*
X151653656Y-103209622D01*
X151646397Y-104254301D01*
X151626247Y-104321202D01*
X151611655Y-104333669D01*
X151643083Y-104395076D01*
X151645252Y-104419044D01*
X151548720Y-118312300D01*
X151528570Y-118379201D01*
X151475450Y-118424588D01*
X151460719Y-118430098D01*
X151325271Y-118471186D01*
X151151467Y-118564086D01*
X151151460Y-118564090D01*
X151009796Y-118680353D01*
X150945486Y-118707666D01*
X150931131Y-118708500D01*
X143549399Y-118708500D01*
X143482360Y-118688815D01*
X143436605Y-118636011D01*
X143425399Y-118584500D01*
X143425399Y-118065729D01*
X143425398Y-118065723D01*
X143425397Y-118065716D01*
X143418991Y-118006117D01*
X143401156Y-117958300D01*
X143368697Y-117871271D01*
X143368693Y-117871264D01*
X143282447Y-117756055D01*
X143282444Y-117756052D01*
X143167235Y-117669806D01*
X143167228Y-117669802D01*
X143032383Y-117619508D01*
X142984843Y-117614397D01*
X142920292Y-117587658D01*
X142880445Y-117530265D01*
X142874100Y-117491108D01*
X142874100Y-116627891D01*
X142893785Y-116560852D01*
X142946589Y-116515097D01*
X142984847Y-116504601D01*
X143032383Y-116499491D01*
X143167228Y-116449197D01*
X143167227Y-116449197D01*
X143167231Y-116449196D01*
X143282446Y-116362946D01*
X143368696Y-116247731D01*
X143418991Y-116112883D01*
X143425400Y-116053273D01*
X143425399Y-113366728D01*
X143418991Y-113307117D01*
X143368696Y-113172269D01*
X143368695Y-113172268D01*
X143368693Y-113172264D01*
X143282447Y-113057055D01*
X143282444Y-113057052D01*
X143167235Y-112970806D01*
X143167228Y-112970802D01*
X143032382Y-112920508D01*
X143032383Y-112920508D01*
X142972783Y-112914101D01*
X142972781Y-112914100D01*
X142972773Y-112914100D01*
X142972765Y-112914100D01*
X140094498Y-112914100D01*
X140027459Y-112894415D01*
X139981704Y-112841611D01*
X139970498Y-112790100D01*
X139970498Y-111328663D01*
X139990183Y-111261624D01*
X140006817Y-111240982D01*
X140016799Y-111231000D01*
X140423199Y-111231000D01*
X140471027Y-111231000D01*
X140471043Y-111230999D01*
X140530571Y-111224598D01*
X140530575Y-111224597D01*
X140650949Y-111179700D01*
X140720641Y-111174716D01*
X140737616Y-111179700D01*
X140797430Y-111202008D01*
X140859317Y-111225091D01*
X140918927Y-111231500D01*
X141421072Y-111231499D01*
X141480683Y-111225091D01*
X141615531Y-111174796D01*
X141730746Y-111088546D01*
X141816996Y-110973331D01*
X141867291Y-110838483D01*
X141873700Y-110778873D01*
X141873699Y-110028595D01*
X141881517Y-109985262D01*
X141932796Y-109847776D01*
X141932797Y-109847772D01*
X141939198Y-109788244D01*
X141939199Y-109788227D01*
X141939199Y-109152200D01*
X140469999Y-109152200D01*
X140469999Y-109880080D01*
X140469288Y-109893332D01*
X140466301Y-109921125D01*
X140466300Y-109921137D01*
X140466300Y-110188937D01*
X140446615Y-110255976D01*
X140429981Y-110276618D01*
X140423199Y-110283400D01*
X140423199Y-111231000D01*
X140016799Y-111231000D01*
X140016799Y-110283400D01*
X140010016Y-110276617D01*
X139976531Y-110215294D01*
X139973697Y-110188936D01*
X139973697Y-109921129D01*
X139973697Y-109921127D01*
X139970708Y-109893331D01*
X139969999Y-109880078D01*
X139969999Y-107924320D01*
X139970710Y-107911064D01*
X139971070Y-107907714D01*
X139973698Y-107883273D01*
X139973697Y-107615461D01*
X139993381Y-107548424D01*
X140010017Y-107527781D01*
X140016799Y-107520999D01*
X140016799Y-106573400D01*
X139968954Y-106573400D01*
X139909426Y-106579801D01*
X139909418Y-106579803D01*
X139789046Y-106624699D01*
X139719354Y-106629683D01*
X139702380Y-106624699D01*
X139580680Y-106579308D01*
X139580681Y-106579308D01*
X139521081Y-106572901D01*
X139521079Y-106572900D01*
X139521071Y-106572900D01*
X139521063Y-106572900D01*
X139430517Y-106572900D01*
X139363478Y-106553215D01*
X139342836Y-106536581D01*
X139218538Y-106412283D01*
X139213403Y-106406828D01*
X139173527Y-106361816D01*
X139173522Y-106361812D01*
X139124036Y-106327655D01*
X139118001Y-106323215D01*
X139070658Y-106286124D01*
X139070653Y-106286120D01*
X139061411Y-106281961D01*
X139041864Y-106270936D01*
X139033529Y-106265183D01*
X139033530Y-106265183D01*
X139033528Y-106265182D01*
X138977292Y-106243854D01*
X138970388Y-106240994D01*
X138915530Y-106216305D01*
X138915528Y-106216304D01*
X138905544Y-106214474D01*
X138883941Y-106208451D01*
X138874472Y-106204860D01*
X138874469Y-106204859D01*
X138814769Y-106197610D01*
X138807368Y-106196483D01*
X138748207Y-106185642D01*
X138748201Y-106185642D01*
X138688165Y-106189274D01*
X138680677Y-106189500D01*
X138197231Y-106189500D01*
X138130192Y-106169815D01*
X138109550Y-106153182D01*
X138063560Y-106107192D01*
X138003656Y-106047288D01*
X137854334Y-105955186D01*
X137687797Y-105900001D01*
X137687795Y-105900000D01*
X137585010Y-105889500D01*
X136534998Y-105889500D01*
X136534980Y-105889501D01*
X136432203Y-105900000D01*
X136432200Y-105900001D01*
X136265668Y-105955185D01*
X136265663Y-105955187D01*
X136116345Y-106047287D01*
X136010450Y-106153182D01*
X135949127Y-106186666D01*
X135922769Y-106189500D01*
X134830088Y-106189500D01*
X134763049Y-106169815D01*
X134751423Y-106161353D01*
X134608539Y-106044090D01*
X134608532Y-106044086D01*
X134434733Y-105951188D01*
X134434727Y-105951186D01*
X134265994Y-105900001D01*
X134246129Y-105893975D01*
X134050000Y-105874659D01*
X133853870Y-105893975D01*
X133665266Y-105951188D01*
X133491467Y-106044086D01*
X133491460Y-106044090D01*
X133339116Y-106169116D01*
X133214090Y-106321460D01*
X133214086Y-106321467D01*
X133121188Y-106495266D01*
X133063975Y-106683870D01*
X133044659Y-106880000D01*
X133063975Y-107076129D01*
X133063976Y-107076132D01*
X133110926Y-107230906D01*
X133121188Y-107264733D01*
X133214086Y-107438532D01*
X133214090Y-107438539D01*
X133339116Y-107590883D01*
X133491460Y-107715909D01*
X133491467Y-107715913D01*
X133665266Y-107808811D01*
X133665269Y-107808811D01*
X133665273Y-107808814D01*
X133853868Y-107866024D01*
X134050000Y-107885341D01*
X134246132Y-107866024D01*
X134434727Y-107808814D01*
X134608538Y-107715910D01*
X134717095Y-107626819D01*
X134727053Y-107618647D01*
X134791363Y-107591334D01*
X134805718Y-107590500D01*
X135922769Y-107590500D01*
X135989808Y-107610185D01*
X136010450Y-107626818D01*
X136116344Y-107732712D01*
X136116346Y-107732713D01*
X136119653Y-107734753D01*
X136121445Y-107736746D01*
X136122011Y-107737193D01*
X136121934Y-107737289D01*
X136166379Y-107786699D01*
X136177603Y-107855661D01*
X136149761Y-107919744D01*
X136119665Y-107945826D01*
X136116660Y-107947679D01*
X136116655Y-107947683D01*
X135992684Y-108071654D01*
X135900643Y-108220875D01*
X135900641Y-108220880D01*
X135845494Y-108387302D01*
X135845493Y-108387309D01*
X135835000Y-108490013D01*
X135835000Y-108540000D01*
X137186000Y-108540000D01*
X137253039Y-108559685D01*
X137298794Y-108612489D01*
X137310000Y-108664000D01*
X137310000Y-108916000D01*
X137290315Y-108983039D01*
X137237511Y-109028794D01*
X137186000Y-109040000D01*
X135835001Y-109040000D01*
X135835001Y-109089986D01*
X135845494Y-109192697D01*
X135900641Y-109359119D01*
X135900643Y-109359124D01*
X135963113Y-109460403D01*
X135981553Y-109527796D01*
X135960630Y-109594459D01*
X135906988Y-109639229D01*
X135857574Y-109649500D01*
X133805119Y-109649500D01*
X133738080Y-109629815D01*
X133717438Y-109613181D01*
X131667818Y-107563561D01*
X131634333Y-107502238D01*
X131631499Y-107475880D01*
X131631499Y-106978929D01*
X131631498Y-106978923D01*
X131631497Y-106978916D01*
X131625091Y-106919317D01*
X131615344Y-106893185D01*
X131574797Y-106784471D01*
X131574793Y-106784464D01*
X131488547Y-106669255D01*
X131488544Y-106669252D01*
X131373335Y-106583006D01*
X131373328Y-106583002D01*
X131238482Y-106532708D01*
X131238483Y-106532708D01*
X131178883Y-106526301D01*
X131178881Y-106526300D01*
X131178873Y-106526300D01*
X131178864Y-106526300D01*
X130321129Y-106526300D01*
X130321123Y-106526301D01*
X130261516Y-106532708D01*
X130126671Y-106583002D01*
X130126664Y-106583006D01*
X130011455Y-106669252D01*
X130011452Y-106669255D01*
X129925206Y-106784464D01*
X129925202Y-106784471D01*
X129874908Y-106919317D01*
X129869409Y-106970468D01*
X129868501Y-106978923D01*
X129868500Y-106978935D01*
X129868500Y-108293870D01*
X127354527Y-108293870D01*
X126082838Y-107022181D01*
X126049353Y-106960858D01*
X126054337Y-106891166D01*
X126096209Y-106835233D01*
X126161673Y-106810816D01*
X126170519Y-106810500D01*
X128898679Y-106810500D01*
X128906166Y-106810725D01*
X128966206Y-106814358D01*
X129025382Y-106803513D01*
X129032785Y-106802387D01*
X129036521Y-106801933D01*
X129092472Y-106795140D01*
X129101935Y-106791550D01*
X129123561Y-106785522D01*
X129124493Y-106785351D01*
X129133532Y-106783695D01*
X129188408Y-106758996D01*
X129195278Y-106756150D01*
X129251530Y-106734818D01*
X129259866Y-106729062D01*
X129279421Y-106718034D01*
X129288657Y-106713878D01*
X129336013Y-106676775D01*
X129342004Y-106672366D01*
X129391529Y-106638183D01*
X129431422Y-106593151D01*
X129436524Y-106587731D01*
X130594238Y-105430018D01*
X130655561Y-105396533D01*
X130681919Y-105393699D01*
X131178871Y-105393699D01*
X131178872Y-105393699D01*
X131238483Y-105387291D01*
X131373331Y-105336996D01*
X131488546Y-105250746D01*
X131574796Y-105135531D01*
X131582581Y-105114659D01*
X131601190Y-105064767D01*
X131643061Y-105008833D01*
X131708526Y-104984416D01*
X131717372Y-104984100D01*
X142542081Y-104984100D01*
X142609120Y-105003785D01*
X142629762Y-105020419D01*
X143368181Y-105758838D01*
X143401666Y-105820161D01*
X143404500Y-105846519D01*
X143404500Y-106036616D01*
X143405470Y-106047287D01*
X143410913Y-106107192D01*
X143410913Y-106107194D01*
X143410914Y-106107196D01*
X143441347Y-106204860D01*
X143461522Y-106269606D01*
X143549530Y-106415188D01*
X143651661Y-106517319D01*
X143685146Y-106578642D01*
X143680162Y-106648334D01*
X143651663Y-106692679D01*
X143626764Y-106717579D01*
X143565442Y-106751066D01*
X143539081Y-106753900D01*
X141820154Y-106753900D01*
X141753115Y-106734215D01*
X141732467Y-106717576D01*
X141730748Y-106715857D01*
X141730746Y-106715854D01*
X141615531Y-106629604D01*
X141615529Y-106629603D01*
X141615528Y-106629602D01*
X141480686Y-106579310D01*
X141480685Y-106579309D01*
X141480683Y-106579309D01*
X141421073Y-106572900D01*
X141421063Y-106572900D01*
X140918929Y-106572900D01*
X140918923Y-106572901D01*
X140859316Y-106579308D01*
X140737618Y-106624699D01*
X140667926Y-106629683D01*
X140650952Y-106624699D01*
X140530579Y-106579803D01*
X140530571Y-106579801D01*
X140471043Y-106573400D01*
X140423199Y-106573400D01*
X140423199Y-107521000D01*
X140429982Y-107527783D01*
X140463467Y-107589106D01*
X140466300Y-107615461D01*
X140466301Y-107883272D01*
X140469213Y-107910365D01*
X140469289Y-107911067D01*
X140469999Y-107924321D01*
X140469999Y-108652200D01*
X141939199Y-108652200D01*
X141939199Y-108278900D01*
X141958884Y-108211861D01*
X142011688Y-108166106D01*
X142063199Y-108154900D01*
X143588002Y-108154900D01*
X143655041Y-108174585D01*
X143664469Y-108181285D01*
X143669807Y-108185466D01*
X143669812Y-108185469D01*
X143669815Y-108185472D01*
X143815394Y-108273478D01*
X143977804Y-108324086D01*
X144048384Y-108330500D01*
X144048387Y-108330500D01*
X144711613Y-108330500D01*
X144711616Y-108330500D01*
X144782196Y-108324086D01*
X144944606Y-108273478D01*
X145090185Y-108185472D01*
X145094372Y-108181285D01*
X145108839Y-108166819D01*
X145170162Y-108133334D01*
X145196520Y-108130500D01*
X147205079Y-108130500D01*
X147212566Y-108130725D01*
X147272606Y-108134358D01*
X147331782Y-108123513D01*
X147339185Y-108122387D01*
X147342921Y-108121933D01*
X147398872Y-108115140D01*
X147408335Y-108111550D01*
X147429961Y-108105522D01*
X147430893Y-108105351D01*
X147439932Y-108103695D01*
X147494808Y-108078996D01*
X147501678Y-108076150D01*
X147557930Y-108054818D01*
X147566266Y-108049062D01*
X147585821Y-108038034D01*
X147595057Y-108033878D01*
X147642413Y-107996775D01*
X147648404Y-107992366D01*
X147697929Y-107958183D01*
X147737822Y-107913151D01*
X147742924Y-107907731D01*
X150281439Y-105369216D01*
X150342760Y-105335733D01*
X150381270Y-105333496D01*
X150400000Y-105335341D01*
X150596132Y-105316024D01*
X150784727Y-105258814D01*
X150799820Y-105250747D01*
X150916077Y-105188606D01*
X150958538Y-105165910D01*
X151110883Y-105040883D01*
X151235910Y-104888538D01*
X151328814Y-104714727D01*
X151386024Y-104526132D01*
X151397853Y-104406025D01*
X151424012Y-104341242D01*
X151433097Y-104334812D01*
X151403183Y-104287546D01*
X151398997Y-104265592D01*
X151397919Y-104254649D01*
X151386024Y-104133868D01*
X151328814Y-103945273D01*
X151328811Y-103945269D01*
X151328811Y-103945266D01*
X151235913Y-103771467D01*
X151235909Y-103771460D01*
X151110883Y-103619116D01*
X150958539Y-103494090D01*
X150958532Y-103494086D01*
X150784733Y-103401188D01*
X150784727Y-103401186D01*
X150596132Y-103343976D01*
X150596129Y-103343975D01*
X150400000Y-103324659D01*
X150203870Y-103343975D01*
X150015266Y-103401188D01*
X149841467Y-103494086D01*
X149841460Y-103494090D01*
X149689116Y-103619116D01*
X149564090Y-103771460D01*
X149564086Y-103771467D01*
X149471188Y-103945266D01*
X149413975Y-104133871D01*
X149405050Y-104224487D01*
X149378889Y-104289274D01*
X149369328Y-104300013D01*
X146976162Y-106693181D01*
X146914839Y-106726666D01*
X146888481Y-106729500D01*
X145196520Y-106729500D01*
X145129481Y-106709815D01*
X145108926Y-106693269D01*
X145108838Y-106693181D01*
X145108423Y-106692766D01*
X145074879Y-106631479D01*
X145079794Y-106561783D01*
X145108336Y-106517320D01*
X145210472Y-106415185D01*
X145298478Y-106269606D01*
X145349086Y-106107196D01*
X145355500Y-106036616D01*
X145355500Y-105523384D01*
X145349086Y-105452804D01*
X145298478Y-105290394D01*
X145210472Y-105144815D01*
X145210470Y-105144813D01*
X145210469Y-105144811D01*
X145090188Y-105024530D01*
X144999576Y-104969753D01*
X144944606Y-104936522D01*
X144782196Y-104885914D01*
X144782194Y-104885913D01*
X144782192Y-104885913D01*
X144732778Y-104881423D01*
X144711616Y-104879500D01*
X144711613Y-104879500D01*
X144521519Y-104879500D01*
X144454480Y-104859815D01*
X144433838Y-104843181D01*
X143396540Y-103805883D01*
X143391405Y-103800428D01*
X143351529Y-103755416D01*
X143351524Y-103755412D01*
X143302038Y-103721255D01*
X143296003Y-103716815D01*
X143248660Y-103679724D01*
X143248655Y-103679720D01*
X143239413Y-103675561D01*
X143219866Y-103664536D01*
X143211531Y-103658783D01*
X143211532Y-103658783D01*
X143211530Y-103658782D01*
X143155294Y-103637454D01*
X143148390Y-103634594D01*
X143093532Y-103609905D01*
X143093530Y-103609904D01*
X143083546Y-103608074D01*
X143061943Y-103602051D01*
X143052474Y-103598460D01*
X143052471Y-103598459D01*
X142992771Y-103591210D01*
X142985370Y-103590083D01*
X142926209Y-103579242D01*
X142926203Y-103579242D01*
X142866167Y-103582874D01*
X142858679Y-103583100D01*
X131717372Y-103583100D01*
X131650333Y-103563415D01*
X131604578Y-103510611D01*
X131601190Y-103502433D01*
X131574797Y-103431671D01*
X131574793Y-103431664D01*
X131488547Y-103316455D01*
X131488544Y-103316452D01*
X131373335Y-103230206D01*
X131373328Y-103230202D01*
X131238482Y-103179908D01*
X131238483Y-103179908D01*
X131178883Y-103173501D01*
X131178881Y-103173500D01*
X131178873Y-103173500D01*
X131178864Y-103173500D01*
X130321129Y-103173500D01*
X130321123Y-103173501D01*
X130261516Y-103179908D01*
X130126671Y-103230202D01*
X130126664Y-103230206D01*
X130011455Y-103316452D01*
X130011452Y-103316455D01*
X129925206Y-103431664D01*
X129925202Y-103431671D01*
X129874908Y-103566517D01*
X129868501Y-103626116D01*
X129868500Y-103626135D01*
X129868500Y-104123080D01*
X129848815Y-104190119D01*
X129832181Y-104210761D01*
X128669762Y-105373181D01*
X128608439Y-105406666D01*
X128582081Y-105409500D01*
X124945718Y-105409500D01*
X124878679Y-105389815D01*
X124867053Y-105381353D01*
X124748539Y-105284090D01*
X124748532Y-105284086D01*
X124574733Y-105191188D01*
X124574727Y-105191186D01*
X124421850Y-105144811D01*
X124386129Y-105133975D01*
X124190000Y-105114659D01*
X123993870Y-105133975D01*
X123805266Y-105191188D01*
X123631467Y-105284086D01*
X123631460Y-105284090D01*
X123479116Y-105409116D01*
X123354090Y-105561460D01*
X123354086Y-105561467D01*
X123261188Y-105735266D01*
X123203975Y-105923870D01*
X123184659Y-106120000D01*
X123203975Y-106316129D01*
X123203976Y-106316132D01*
X123234024Y-106415188D01*
X123261188Y-106504733D01*
X123354086Y-106678532D01*
X123354090Y-106678539D01*
X123479116Y-106830883D01*
X123631460Y-106955909D01*
X123631467Y-106955913D01*
X123805266Y-107048811D01*
X123805269Y-107048811D01*
X123805273Y-107048814D01*
X123993868Y-107106024D01*
X124162135Y-107122596D01*
X124226921Y-107148757D01*
X124237661Y-107158318D01*
X126493181Y-109413838D01*
X126526666Y-109475161D01*
X126529500Y-109501519D01*
X126529500Y-117450201D01*
X126509815Y-117517240D01*
X126470598Y-117555739D01*
X126411344Y-117592287D01*
X126287288Y-117716343D01*
X126287285Y-117716347D01*
X126248184Y-117779740D01*
X126196236Y-117826465D01*
X126127274Y-117837686D01*
X126063192Y-117809843D01*
X126045175Y-117791294D01*
X126042276Y-117787608D01*
X126030092Y-117772114D01*
X125983818Y-117732017D01*
X125871253Y-117634478D01*
X125689249Y-117529398D01*
X125689245Y-117529396D01*
X125689244Y-117529396D01*
X125490633Y-117460656D01*
X125282602Y-117430746D01*
X125282598Y-117430746D01*
X125072672Y-117440745D01*
X124868421Y-117490296D01*
X124868417Y-117490298D01*
X124677256Y-117577598D01*
X124677251Y-117577601D01*
X124506046Y-117699515D01*
X124506040Y-117699520D01*
X124361014Y-117851620D01*
X124321860Y-117912546D01*
X124269056Y-117958300D01*
X124217545Y-117969506D01*
X119185450Y-117969506D01*
X119118411Y-117949821D01*
X119072656Y-117897017D01*
X119067745Y-117884513D01*
X119064815Y-117875673D01*
X119064815Y-117875672D01*
X118972713Y-117726350D01*
X118848657Y-117602294D01*
X118848656Y-117602293D01*
X118799403Y-117571913D01*
X118752679Y-117519964D01*
X118740501Y-117466375D01*
X118740501Y-115625636D01*
X118760186Y-115558597D01*
X118807277Y-115517467D01*
X118806779Y-115516660D01*
X118811624Y-115513671D01*
X118812109Y-115513248D01*
X118812916Y-115512871D01*
X118812926Y-115512868D01*
X118961004Y-115421532D01*
X119084027Y-115298509D01*
X119175363Y-115150431D01*
X119230088Y-114985281D01*
X119240501Y-114883354D01*
X119240501Y-114296658D01*
X119230088Y-114194731D01*
X119175363Y-114029581D01*
X119175359Y-114029575D01*
X119175358Y-114029572D01*
X119084029Y-113881506D01*
X119084026Y-113881502D01*
X118961005Y-113758481D01*
X118961004Y-113758480D01*
X118960302Y-113758047D01*
X118959922Y-113757624D01*
X118955337Y-113753999D01*
X118955956Y-113753215D01*
X118913576Y-113706104D01*
X118902350Y-113637142D01*
X118930189Y-113573058D01*
X118955456Y-113551163D01*
X118955337Y-113551013D01*
X118958688Y-113548362D01*
X118960300Y-113546965D01*
X118961004Y-113546532D01*
X119084027Y-113423509D01*
X119175363Y-113275431D01*
X119230088Y-113110281D01*
X119240501Y-113008354D01*
X119240501Y-112421658D01*
X119230088Y-112319731D01*
X119175363Y-112154581D01*
X119175359Y-112154575D01*
X119175358Y-112154572D01*
X119084029Y-112006506D01*
X119084026Y-112006502D01*
X118961004Y-111883480D01*
X118961000Y-111883477D01*
X118812934Y-111792148D01*
X118812928Y-111792145D01*
X118812926Y-111792144D01*
X118762719Y-111775507D01*
X118647777Y-111737419D01*
X118545856Y-111727006D01*
X118545849Y-111727006D01*
X118094020Y-111727006D01*
X118026981Y-111707321D01*
X118006339Y-111690687D01*
X113776814Y-107461162D01*
X113743329Y-107399839D01*
X113740495Y-107373481D01*
X113740495Y-107230906D01*
X113760180Y-107163867D01*
X113812984Y-107118112D01*
X113864495Y-107106906D01*
X114019993Y-107106906D01*
X114519993Y-107106906D01*
X114724221Y-107106906D01*
X114724237Y-107106905D01*
X114783765Y-107100504D01*
X114783769Y-107100503D01*
X114918478Y-107050259D01*
X114926855Y-107043988D01*
X114992318Y-107019567D01*
X115060592Y-107034413D01*
X115082662Y-107050934D01*
X115082984Y-107050543D01*
X115248914Y-107186719D01*
X115248921Y-107186723D01*
X115432846Y-107285033D01*
X115432849Y-107285034D01*
X115590000Y-107332705D01*
X115590000Y-106972256D01*
X115609685Y-106905217D01*
X115662489Y-106859462D01*
X115731647Y-106849518D01*
X115747447Y-106852852D01*
X115763676Y-106857400D01*
X115763678Y-106857400D01*
X115877985Y-106857400D01*
X115949115Y-106847623D01*
X116018210Y-106857995D01*
X116070729Y-106904077D01*
X116090000Y-106970468D01*
X116090000Y-107332705D01*
X116247150Y-107285034D01*
X116247153Y-107285033D01*
X116431078Y-107186723D01*
X116431085Y-107186719D01*
X116592307Y-107054407D01*
X116724619Y-106893185D01*
X116724623Y-106893178D01*
X116822935Y-106709250D01*
X116883480Y-106509659D01*
X116898800Y-106354111D01*
X116898800Y-106260000D01*
X116499296Y-106260000D01*
X116432257Y-106240315D01*
X116386502Y-106187511D01*
X116377889Y-106161228D01*
X116376217Y-106153182D01*
X116368157Y-106114393D01*
X116345635Y-106070928D01*
X116332270Y-106002351D01*
X116338891Y-105972361D01*
X116373615Y-105874659D01*
X116385054Y-105842474D01*
X116426053Y-105785898D01*
X116491130Y-105760468D01*
X116501894Y-105760000D01*
X116898800Y-105760000D01*
X116898800Y-105665888D01*
X116883480Y-105510340D01*
X116822935Y-105310749D01*
X116724623Y-105126821D01*
X116724619Y-105126814D01*
X116592307Y-104965592D01*
X116431085Y-104833280D01*
X116431078Y-104833276D01*
X116247152Y-104734965D01*
X116090000Y-104687293D01*
X116090000Y-105047743D01*
X116070315Y-105114782D01*
X116017511Y-105160537D01*
X115948353Y-105170481D01*
X115932547Y-105167145D01*
X115916326Y-105162600D01*
X115916324Y-105162600D01*
X115802015Y-105162600D01*
X115802013Y-105162600D01*
X115730884Y-105172376D01*
X115661789Y-105162003D01*
X115609270Y-105115921D01*
X115590000Y-105049531D01*
X115590000Y-104687293D01*
X115589999Y-104687293D01*
X115432847Y-104734965D01*
X115248921Y-104833276D01*
X115248914Y-104833280D01*
X115082984Y-104969457D01*
X115081955Y-104968204D01*
X115027506Y-104997925D01*
X114957815Y-104992930D01*
X114926855Y-104976021D01*
X114918482Y-104969753D01*
X114918479Y-104969751D01*
X114783772Y-104919509D01*
X114783765Y-104919507D01*
X114724237Y-104913106D01*
X114519993Y-104913106D01*
X114519993Y-105760006D01*
X114789512Y-105760006D01*
X114789568Y-105760000D01*
X115180704Y-105760000D01*
X115247743Y-105779685D01*
X115293498Y-105832489D01*
X115302111Y-105858772D01*
X115311843Y-105905607D01*
X115311844Y-105905610D01*
X115334364Y-105949072D01*
X115347729Y-106017651D01*
X115341106Y-106047644D01*
X115294946Y-106177525D01*
X115253948Y-106234102D01*
X115188870Y-106259532D01*
X115178106Y-106260000D01*
X115168081Y-106260000D01*
X115168025Y-106260006D01*
X114519993Y-106260006D01*
X114519993Y-107106906D01*
X114019993Y-107106906D01*
X114019993Y-104913106D01*
X113864495Y-104913106D01*
X113797456Y-104893421D01*
X113751701Y-104840617D01*
X113740495Y-104789106D01*
X113740495Y-104694915D01*
X113740721Y-104687427D01*
X113744353Y-104627389D01*
X113733509Y-104568216D01*
X113732382Y-104560810D01*
X113728171Y-104526128D01*
X113725135Y-104501123D01*
X113721543Y-104491651D01*
X113715516Y-104470029D01*
X113713690Y-104460066D01*
X113713688Y-104460058D01*
X113692851Y-104413763D01*
X113688998Y-104405203D01*
X113686149Y-104398326D01*
X113664813Y-104342065D01*
X113659057Y-104333726D01*
X113648029Y-104314172D01*
X113643875Y-104304941D01*
X113625217Y-104281126D01*
X113606775Y-104257586D01*
X113602347Y-104251568D01*
X113601293Y-104250041D01*
X113568178Y-104202066D01*
X113523148Y-104162173D01*
X113517710Y-104157053D01*
X112982940Y-103622283D01*
X112977805Y-103616828D01*
X112937929Y-103571816D01*
X112937924Y-103571812D01*
X112888438Y-103537655D01*
X112882403Y-103533215D01*
X112835060Y-103496124D01*
X112835055Y-103496120D01*
X112825813Y-103491961D01*
X112806266Y-103480936D01*
X112797931Y-103475183D01*
X112797932Y-103475183D01*
X112797930Y-103475182D01*
X112741694Y-103453854D01*
X112734790Y-103450994D01*
X112679932Y-103426305D01*
X112679930Y-103426304D01*
X112669946Y-103424474D01*
X112648343Y-103418451D01*
X112638874Y-103414860D01*
X112638871Y-103414859D01*
X112579171Y-103407610D01*
X112571770Y-103406483D01*
X112512609Y-103395642D01*
X112512603Y-103395642D01*
X112452567Y-103399274D01*
X112445079Y-103399500D01*
X110374910Y-103399500D01*
X110367423Y-103399274D01*
X110307396Y-103395643D01*
X110307389Y-103395643D01*
X110248243Y-103406481D01*
X110240843Y-103407608D01*
X110181125Y-103414860D01*
X110171642Y-103418456D01*
X110150038Y-103424478D01*
X110148535Y-103424754D01*
X110140065Y-103426306D01*
X110140063Y-103426307D01*
X110085234Y-103450983D01*
X110078319Y-103453848D01*
X110022068Y-103475182D01*
X110013724Y-103480942D01*
X109994183Y-103491964D01*
X109984944Y-103496122D01*
X109984939Y-103496125D01*
X109937594Y-103533216D01*
X109931566Y-103537652D01*
X109882072Y-103571816D01*
X109882064Y-103571823D01*
X109842183Y-103616838D01*
X109837051Y-103622290D01*
X109522291Y-103937050D01*
X109516839Y-103942182D01*
X109471820Y-103982067D01*
X109437650Y-104031568D01*
X109433214Y-104037596D01*
X109396125Y-104084937D01*
X109396120Y-104084947D01*
X109391961Y-104094187D01*
X109380943Y-104113722D01*
X109375188Y-104122060D01*
X109375180Y-104122075D01*
X109353854Y-104178304D01*
X109350990Y-104185219D01*
X109326306Y-104240067D01*
X109324478Y-104250041D01*
X109318454Y-104271652D01*
X109314861Y-104281126D01*
X109314861Y-104281127D01*
X109307611Y-104340826D01*
X109306484Y-104348226D01*
X109295643Y-104407388D01*
X109295643Y-104407394D01*
X109299275Y-104467431D01*
X109299501Y-104474919D01*
X109299501Y-104789106D01*
X109279816Y-104856145D01*
X109227012Y-104901900D01*
X109175501Y-104913106D01*
X109020003Y-104913106D01*
X109020003Y-107106906D01*
X109224231Y-107106906D01*
X109224247Y-107106905D01*
X109283775Y-107100504D01*
X109283782Y-107100502D01*
X109418489Y-107050260D01*
X109418496Y-107050256D01*
X109533590Y-106964096D01*
X109533593Y-106964093D01*
X109619753Y-106848999D01*
X109619757Y-106848992D01*
X109642479Y-106788072D01*
X109684350Y-106732138D01*
X109749814Y-106707721D01*
X109758647Y-106707405D01*
X109887307Y-106707405D01*
X109907469Y-106709853D01*
X109907500Y-106709602D01*
X109914943Y-106710506D01*
X109914945Y-106710506D01*
X110085059Y-106710506D01*
X110092502Y-106709602D01*
X110092532Y-106709853D01*
X110112695Y-106707405D01*
X110270499Y-106707405D01*
X110337538Y-106727090D01*
X110383293Y-106779894D01*
X110394499Y-106831405D01*
X110394499Y-111825496D01*
X110374814Y-111892535D01*
X110322010Y-111938290D01*
X110313834Y-111941677D01*
X110274874Y-111956208D01*
X110274869Y-111956211D01*
X110241096Y-111981494D01*
X110175631Y-112005911D01*
X110107358Y-111991059D01*
X110092474Y-111981494D01*
X110059292Y-111956654D01*
X110059289Y-111956652D01*
X109924582Y-111906410D01*
X109924575Y-111906408D01*
X109865047Y-111900007D01*
X109564403Y-111900007D01*
X109564403Y-114100005D01*
X109865031Y-114100005D01*
X109865047Y-114100004D01*
X109924575Y-114093603D01*
X109924579Y-114093602D01*
X110059290Y-114043357D01*
X110092470Y-114018518D01*
X110157934Y-113994099D01*
X110226207Y-114008949D01*
X110241082Y-114018507D01*
X110274870Y-114043801D01*
X110274873Y-114043802D01*
X110274872Y-114043802D01*
X110409718Y-114094096D01*
X110409717Y-114094096D01*
X110416645Y-114094840D01*
X110469328Y-114100505D01*
X111570673Y-114100504D01*
X111630284Y-114094096D01*
X111765132Y-114043801D01*
X111880347Y-113957551D01*
X111880349Y-113957547D01*
X111882320Y-113955578D01*
X111884770Y-113954239D01*
X111887446Y-113952237D01*
X111887734Y-113952621D01*
X111943643Y-113922093D01*
X112013335Y-113927077D01*
X112052532Y-113952268D01*
X112052556Y-113952237D01*
X112052996Y-113952566D01*
X112057682Y-113955578D01*
X112059656Y-113957552D01*
X112174865Y-114043798D01*
X112174872Y-114043802D01*
X112309718Y-114094096D01*
X112309717Y-114094096D01*
X112316645Y-114094840D01*
X112369328Y-114100505D01*
X113470673Y-114100504D01*
X113530284Y-114094096D01*
X113618097Y-114061344D01*
X113665130Y-114043802D01*
X113665130Y-114043801D01*
X113665132Y-114043801D01*
X113698905Y-114018517D01*
X113764367Y-113994100D01*
X113832640Y-114008950D01*
X113847527Y-114018518D01*
X113880705Y-114043355D01*
X113880712Y-114043359D01*
X114015419Y-114093601D01*
X114015426Y-114093603D01*
X114074954Y-114100004D01*
X114074971Y-114100005D01*
X114375599Y-114100005D01*
X114375599Y-113250006D01*
X114875599Y-113250006D01*
X114875599Y-114100005D01*
X115176227Y-114100005D01*
X115176243Y-114100004D01*
X115235771Y-114093603D01*
X115235778Y-114093601D01*
X115370485Y-114043359D01*
X115370492Y-114043355D01*
X115485586Y-113957195D01*
X115485589Y-113957192D01*
X115571749Y-113842098D01*
X115571753Y-113842091D01*
X115621995Y-113707384D01*
X115621997Y-113707377D01*
X115628398Y-113647849D01*
X115628399Y-113647832D01*
X115628399Y-113250006D01*
X114875599Y-113250006D01*
X114375599Y-113250006D01*
X114375599Y-111900007D01*
X114875599Y-111900007D01*
X114875599Y-112750006D01*
X115628399Y-112750006D01*
X115628399Y-112352179D01*
X115628398Y-112352162D01*
X115621997Y-112292634D01*
X115621995Y-112292627D01*
X115571753Y-112157920D01*
X115571749Y-112157913D01*
X115485589Y-112042819D01*
X115485586Y-112042816D01*
X115370492Y-111956656D01*
X115370485Y-111956652D01*
X115235778Y-111906410D01*
X115235771Y-111906408D01*
X115176243Y-111900007D01*
X114875599Y-111900007D01*
X114375599Y-111900007D01*
X114074954Y-111900007D01*
X114015426Y-111906408D01*
X114015419Y-111906410D01*
X113880712Y-111956652D01*
X113880710Y-111956653D01*
X113847526Y-111981495D01*
X113782061Y-112005911D01*
X113713788Y-111991059D01*
X113698904Y-111981493D01*
X113665132Y-111956211D01*
X113665129Y-111956209D01*
X113530283Y-111905915D01*
X113530284Y-111905915D01*
X113470684Y-111899508D01*
X113470682Y-111899507D01*
X113470674Y-111899507D01*
X113470666Y-111899507D01*
X112769497Y-111899507D01*
X112702458Y-111879822D01*
X112656703Y-111827018D01*
X112645497Y-111775507D01*
X112645497Y-108610521D01*
X112665182Y-108543482D01*
X112717986Y-108497727D01*
X112787144Y-108487783D01*
X112850700Y-108516808D01*
X112857178Y-108522840D01*
X116803182Y-112468844D01*
X116836667Y-112530167D01*
X116839501Y-112556525D01*
X116839501Y-113008361D01*
X116849914Y-113110282D01*
X116904638Y-113275428D01*
X116904643Y-113275439D01*
X116995972Y-113423505D01*
X116995975Y-113423509D01*
X117118997Y-113546531D01*
X117119001Y-113546534D01*
X117119704Y-113546968D01*
X117120084Y-113547391D01*
X117124665Y-113551013D01*
X117124046Y-113551795D01*
X117166429Y-113598916D01*
X117177650Y-113667878D01*
X117149807Y-113731960D01*
X117124545Y-113753848D01*
X117124665Y-113753999D01*
X117121316Y-113756646D01*
X117119704Y-113758044D01*
X117119001Y-113758477D01*
X117118997Y-113758480D01*
X116995975Y-113881502D01*
X116995972Y-113881506D01*
X116904643Y-114029572D01*
X116904638Y-114029583D01*
X116849914Y-114194729D01*
X116839501Y-114296650D01*
X116839501Y-114748487D01*
X116819816Y-114815526D01*
X116803182Y-114836168D01*
X115536163Y-116103187D01*
X115474840Y-116136672D01*
X115448482Y-116139506D01*
X106201525Y-116139506D01*
X106134486Y-116119821D01*
X106113844Y-116103187D01*
X105311818Y-115301161D01*
X105278333Y-115239838D01*
X105275499Y-115213480D01*
X105275499Y-114479998D01*
X105275498Y-114479981D01*
X105264999Y-114377203D01*
X105264998Y-114377200D01*
X105209814Y-114210666D01*
X105117712Y-114061344D01*
X104993656Y-113937288D01*
X104929806Y-113897905D01*
X104883083Y-113845958D01*
X104871860Y-113776995D01*
X104899704Y-113712913D01*
X104918254Y-113694895D01*
X104937540Y-113679728D01*
X105075105Y-113520969D01*
X105075114Y-113520958D01*
X105180144Y-113339039D01*
X105180147Y-113339032D01*
X105210960Y-113250006D01*
X108311603Y-113250006D01*
X108311603Y-113647849D01*
X108318004Y-113707377D01*
X108318006Y-113707384D01*
X108368248Y-113842091D01*
X108368252Y-113842098D01*
X108454412Y-113957192D01*
X108454415Y-113957195D01*
X108569509Y-114043355D01*
X108569516Y-114043359D01*
X108704223Y-114093601D01*
X108704230Y-114093603D01*
X108763758Y-114100004D01*
X108763775Y-114100005D01*
X109064403Y-114100005D01*
X109064403Y-113250006D01*
X108311603Y-113250006D01*
X105210960Y-113250006D01*
X105248855Y-113140517D01*
X105248855Y-113140515D01*
X105250368Y-113130000D01*
X104179560Y-113130000D01*
X104218278Y-113087941D01*
X104268551Y-112973330D01*
X104278886Y-112848605D01*
X104253918Y-112750006D01*
X108311603Y-112750006D01*
X109064403Y-112750006D01*
X109064403Y-111900007D01*
X108763758Y-111900007D01*
X108704230Y-111906408D01*
X108704223Y-111906410D01*
X108569516Y-111956652D01*
X108569509Y-111956656D01*
X108454415Y-112042816D01*
X108454412Y-112042819D01*
X108368252Y-112157913D01*
X108368248Y-112157920D01*
X108318006Y-112292627D01*
X108318004Y-112292634D01*
X108311603Y-112352162D01*
X108311603Y-112750006D01*
X104253918Y-112750006D01*
X104248163Y-112727281D01*
X104184606Y-112630000D01*
X105246257Y-112630000D01*
X105219229Y-112518590D01*
X105131959Y-112327492D01*
X105010110Y-112156380D01*
X105010104Y-112156374D01*
X104858067Y-112011407D01*
X104681342Y-111897833D01*
X104486314Y-111819755D01*
X104280038Y-111780000D01*
X104150000Y-111780000D01*
X104150000Y-112599382D01*
X104080948Y-112545637D01*
X103962576Y-112505000D01*
X103868927Y-112505000D01*
X103776554Y-112520414D01*
X103666486Y-112579981D01*
X103650000Y-112597889D01*
X103650000Y-111780000D01*
X103572602Y-111780000D01*
X103415877Y-111794965D01*
X103415873Y-111794966D01*
X103214313Y-111854149D01*
X103027585Y-111950413D01*
X102862462Y-112080268D01*
X102862459Y-112080271D01*
X102724894Y-112239030D01*
X102724885Y-112239041D01*
X102619855Y-112420960D01*
X102619852Y-112420967D01*
X102551144Y-112619482D01*
X102551144Y-112619484D01*
X102549632Y-112630000D01*
X103620440Y-112630000D01*
X103581722Y-112672059D01*
X103531449Y-112786670D01*
X103521114Y-112911395D01*
X103551837Y-113032719D01*
X103615394Y-113130000D01*
X102553742Y-113130000D01*
X102580770Y-113241409D01*
X102668040Y-113432507D01*
X102789889Y-113603619D01*
X102789900Y-113603631D01*
X102892521Y-113701479D01*
X102927457Y-113761987D01*
X102924132Y-113831778D01*
X102883604Y-113888692D01*
X102872049Y-113896760D01*
X102806347Y-113937285D01*
X102806343Y-113937288D01*
X102682289Y-114061342D01*
X102590187Y-114210663D01*
X102590186Y-114210666D01*
X102535001Y-114377203D01*
X102535001Y-114377204D01*
X102535000Y-114377204D01*
X102524500Y-114479983D01*
X102524500Y-115280001D01*
X100273067Y-115280001D01*
X100378634Y-106354111D01*
X106141196Y-106354111D01*
X106156515Y-106509659D01*
X106217060Y-106709250D01*
X106315372Y-106893178D01*
X106315376Y-106893185D01*
X106447688Y-107054407D01*
X106608910Y-107186719D01*
X106608917Y-107186723D01*
X106792842Y-107285033D01*
X106792845Y-107285034D01*
X106949996Y-107332705D01*
X106949996Y-106972256D01*
X106969681Y-106905217D01*
X107022485Y-106859462D01*
X107091643Y-106849518D01*
X107107443Y-106852852D01*
X107123672Y-106857400D01*
X107123674Y-106857400D01*
X107237981Y-106857400D01*
X107309111Y-106847623D01*
X107378206Y-106857995D01*
X107430725Y-106904077D01*
X107449996Y-106970468D01*
X107449996Y-107332705D01*
X107607146Y-107285034D01*
X107607149Y-107285033D01*
X107791074Y-107186723D01*
X107791081Y-107186719D01*
X107957012Y-107050542D01*
X107958046Y-107051802D01*
X108012443Y-107022089D01*
X108082135Y-107027062D01*
X108113129Y-107043983D01*
X108121510Y-107050256D01*
X108121516Y-107050260D01*
X108256223Y-107100502D01*
X108256230Y-107100504D01*
X108315758Y-107106905D01*
X108315775Y-107106906D01*
X108520003Y-107106906D01*
X108520003Y-106260006D01*
X107871971Y-106260006D01*
X107871951Y-106260000D01*
X107859292Y-106260000D01*
X107792253Y-106240315D01*
X107746498Y-106187511D01*
X107737885Y-106161228D01*
X107736213Y-106153182D01*
X107728153Y-106114393D01*
X107705631Y-106070928D01*
X107692266Y-106002351D01*
X107698887Y-105972361D01*
X107733611Y-105874659D01*
X107745050Y-105842474D01*
X107786049Y-105785898D01*
X107851126Y-105760468D01*
X107861890Y-105760000D01*
X108250428Y-105760000D01*
X108250448Y-105760006D01*
X108520003Y-105760006D01*
X108520003Y-104913106D01*
X108315758Y-104913106D01*
X108256230Y-104919507D01*
X108256223Y-104919509D01*
X108121516Y-104969751D01*
X108121510Y-104969755D01*
X108113137Y-104976023D01*
X108047672Y-105000439D01*
X107979399Y-104985586D01*
X107957332Y-104969066D01*
X107957012Y-104969457D01*
X107791081Y-104833280D01*
X107791074Y-104833276D01*
X107607148Y-104734965D01*
X107449996Y-104687293D01*
X107449996Y-105047743D01*
X107430311Y-105114782D01*
X107377507Y-105160537D01*
X107308349Y-105170481D01*
X107292543Y-105167145D01*
X107276322Y-105162600D01*
X107276320Y-105162600D01*
X107162011Y-105162600D01*
X107162009Y-105162600D01*
X107090880Y-105172376D01*
X107021785Y-105162003D01*
X106969266Y-105115921D01*
X106949996Y-105049531D01*
X106949996Y-104687293D01*
X106949995Y-104687293D01*
X106792843Y-104734965D01*
X106608917Y-104833276D01*
X106608910Y-104833280D01*
X106447688Y-104965592D01*
X106315376Y-105126814D01*
X106315372Y-105126821D01*
X106217060Y-105310749D01*
X106156515Y-105510340D01*
X106141196Y-105665888D01*
X106141196Y-105760000D01*
X106540700Y-105760000D01*
X106607739Y-105779685D01*
X106653494Y-105832489D01*
X106662107Y-105858772D01*
X106671839Y-105905607D01*
X106671840Y-105905610D01*
X106694360Y-105949072D01*
X106707725Y-106017651D01*
X106701102Y-106047644D01*
X106654942Y-106177525D01*
X106613944Y-106234102D01*
X106548866Y-106259532D01*
X106538102Y-106260000D01*
X106141196Y-106260000D01*
X106141196Y-106354111D01*
X100378634Y-106354111D01*
X100411762Y-103553025D01*
X100432238Y-103486226D01*
X100485579Y-103441098D01*
X100554850Y-103431973D01*
X100618058Y-103461748D01*
X100655135Y-103520969D01*
X100657556Y-103531258D01*
X100670318Y-103598157D01*
X100670318Y-103598159D01*
X100763659Y-103885431D01*
X100763661Y-103885436D01*
X100892265Y-104158732D01*
X100892268Y-104158738D01*
X101054111Y-104413763D01*
X101054114Y-104413767D01*
X101054115Y-104413768D01*
X101126381Y-104501123D01*
X101246652Y-104646505D01*
X101466836Y-104853272D01*
X101466846Y-104853280D01*
X101711193Y-105030808D01*
X101711198Y-105030810D01*
X101711205Y-105030816D01*
X101975896Y-105176332D01*
X101975901Y-105176334D01*
X101975903Y-105176335D01*
X101975904Y-105176336D01*
X102256734Y-105287524D01*
X102256737Y-105287525D01*
X102310778Y-105301400D01*
X102549302Y-105362642D01*
X102696039Y-105381179D01*
X102848963Y-105400499D01*
X102848969Y-105400499D01*
X102848973Y-105400500D01*
X102848975Y-105400500D01*
X103151025Y-105400500D01*
X103151027Y-105400500D01*
X103151032Y-105400499D01*
X103151036Y-105400499D01*
X103255585Y-105387291D01*
X103450698Y-105362642D01*
X103743262Y-105287525D01*
X103751948Y-105284086D01*
X104024095Y-105176336D01*
X104024096Y-105176335D01*
X104024094Y-105176335D01*
X104024104Y-105176332D01*
X104288795Y-105030816D01*
X104533162Y-104853274D01*
X104753349Y-104646504D01*
X104945885Y-104413768D01*
X105107733Y-104158736D01*
X105236341Y-103885430D01*
X105329681Y-103598160D01*
X105386280Y-103301457D01*
X105392058Y-103209618D01*
X105405246Y-103000005D01*
X105405246Y-102999994D01*
X105386281Y-102698553D01*
X105386280Y-102698546D01*
X105386280Y-102698543D01*
X105358728Y-102554111D01*
X106141196Y-102554111D01*
X106156515Y-102709659D01*
X106217060Y-102909250D01*
X106315372Y-103093178D01*
X106315376Y-103093185D01*
X106447688Y-103254407D01*
X106608910Y-103386719D01*
X106608917Y-103386723D01*
X106792842Y-103485033D01*
X106792845Y-103485034D01*
X106949996Y-103532705D01*
X106949996Y-103172256D01*
X106969681Y-103105217D01*
X107022485Y-103059462D01*
X107091643Y-103049518D01*
X107107443Y-103052852D01*
X107123672Y-103057400D01*
X107123674Y-103057400D01*
X107237981Y-103057400D01*
X107309111Y-103047623D01*
X107378206Y-103057995D01*
X107430725Y-103104077D01*
X107449996Y-103170468D01*
X107449996Y-103532705D01*
X107607146Y-103485034D01*
X107607149Y-103485033D01*
X107791074Y-103386723D01*
X107791081Y-103386719D01*
X107952303Y-103254407D01*
X108084615Y-103093185D01*
X108084619Y-103093178D01*
X108182931Y-102909250D01*
X108243476Y-102709659D01*
X108258796Y-102554111D01*
X114781200Y-102554111D01*
X114796519Y-102709659D01*
X114857064Y-102909250D01*
X114955376Y-103093178D01*
X114955380Y-103093185D01*
X115087692Y-103254407D01*
X115248914Y-103386719D01*
X115248921Y-103386723D01*
X115432846Y-103485033D01*
X115432849Y-103485034D01*
X115590000Y-103532705D01*
X115590000Y-103172256D01*
X115609685Y-103105217D01*
X115662489Y-103059462D01*
X115731647Y-103049518D01*
X115747447Y-103052852D01*
X115763676Y-103057400D01*
X115763678Y-103057400D01*
X115877985Y-103057400D01*
X115949115Y-103047623D01*
X116018210Y-103057995D01*
X116070729Y-103104077D01*
X116090000Y-103170468D01*
X116090000Y-103532705D01*
X116247150Y-103485034D01*
X116247153Y-103485033D01*
X116431078Y-103386723D01*
X116431085Y-103386719D01*
X116592307Y-103254407D01*
X116724619Y-103093185D01*
X116724623Y-103093178D01*
X116822935Y-102909250D01*
X116883480Y-102709659D01*
X116898800Y-102554111D01*
X116898800Y-102460000D01*
X116499296Y-102460000D01*
X116432257Y-102440315D01*
X116386502Y-102387511D01*
X116377889Y-102361228D01*
X116368157Y-102314393D01*
X116358401Y-102295564D01*
X116344500Y-102238518D01*
X116344500Y-102177959D01*
X116351660Y-102136433D01*
X116355927Y-102124429D01*
X116364745Y-102099615D01*
X116385054Y-102042474D01*
X116426053Y-101985898D01*
X116491130Y-101960468D01*
X116501894Y-101960000D01*
X116898800Y-101960000D01*
X116898800Y-101865888D01*
X116883480Y-101710340D01*
X116822935Y-101510749D01*
X116724623Y-101326821D01*
X116724619Y-101326814D01*
X116592307Y-101165592D01*
X116431085Y-101033280D01*
X116431078Y-101033276D01*
X116247152Y-100934965D01*
X116090000Y-100887293D01*
X116090000Y-101247743D01*
X116070315Y-101314782D01*
X116017511Y-101360537D01*
X115948353Y-101370481D01*
X115932547Y-101367145D01*
X115916326Y-101362600D01*
X115916324Y-101362600D01*
X115802015Y-101362600D01*
X115802013Y-101362600D01*
X115730884Y-101372376D01*
X115661789Y-101362003D01*
X115609270Y-101315921D01*
X115590000Y-101249531D01*
X115590000Y-100887293D01*
X115589999Y-100887293D01*
X115432847Y-100934965D01*
X115248921Y-101033276D01*
X115248914Y-101033280D01*
X115087692Y-101165592D01*
X114955380Y-101326814D01*
X114955376Y-101326821D01*
X114857064Y-101510749D01*
X114796519Y-101710340D01*
X114781200Y-101865888D01*
X114781200Y-101960000D01*
X115180704Y-101960000D01*
X115247743Y-101979685D01*
X115293498Y-102032489D01*
X115302111Y-102058772D01*
X115311843Y-102105606D01*
X115311844Y-102105611D01*
X115321596Y-102124429D01*
X115335500Y-102181480D01*
X115335500Y-102242040D01*
X115328340Y-102283566D01*
X115294946Y-102377526D01*
X115253948Y-102434102D01*
X115188870Y-102459532D01*
X115178106Y-102460000D01*
X114781200Y-102460000D01*
X114781200Y-102554111D01*
X108258796Y-102554111D01*
X108258796Y-102460000D01*
X107859292Y-102460000D01*
X107792253Y-102440315D01*
X107746498Y-102387511D01*
X107737885Y-102361228D01*
X107728153Y-102314393D01*
X107705631Y-102270928D01*
X107692266Y-102202351D01*
X107698887Y-102172361D01*
X107729196Y-102087078D01*
X107745050Y-102042474D01*
X107786049Y-101985898D01*
X107851126Y-101960468D01*
X107861890Y-101960000D01*
X108258796Y-101960000D01*
X108258796Y-101865888D01*
X108243476Y-101710340D01*
X108182931Y-101510749D01*
X108084619Y-101326821D01*
X108084615Y-101326814D01*
X107952303Y-101165592D01*
X107791081Y-101033280D01*
X107791074Y-101033276D01*
X107607148Y-100934965D01*
X107449996Y-100887293D01*
X107449996Y-101247743D01*
X107430311Y-101314782D01*
X107377507Y-101360537D01*
X107308349Y-101370481D01*
X107292543Y-101367145D01*
X107276322Y-101362600D01*
X107276320Y-101362600D01*
X107162011Y-101362600D01*
X107162009Y-101362600D01*
X107090880Y-101372376D01*
X107021785Y-101362003D01*
X106969266Y-101315921D01*
X106949996Y-101249531D01*
X106949996Y-100887293D01*
X106949995Y-100887293D01*
X106792843Y-100934965D01*
X106608917Y-101033276D01*
X106608910Y-101033280D01*
X106447688Y-101165592D01*
X106315376Y-101326814D01*
X106315372Y-101326821D01*
X106217060Y-101510749D01*
X106156515Y-101710340D01*
X106141196Y-101865888D01*
X106141196Y-101960000D01*
X106540700Y-101960000D01*
X106607739Y-101979685D01*
X106653494Y-102032489D01*
X106662107Y-102058772D01*
X106671839Y-102105607D01*
X106671840Y-102105610D01*
X106694360Y-102149072D01*
X106707725Y-102217651D01*
X106701102Y-102247644D01*
X106654942Y-102377525D01*
X106613944Y-102434102D01*
X106548866Y-102459532D01*
X106538102Y-102460000D01*
X106141196Y-102460000D01*
X106141196Y-102554111D01*
X105358728Y-102554111D01*
X105329681Y-102401840D01*
X105236341Y-102114570D01*
X105232123Y-102105607D01*
X105161795Y-101956151D01*
X105107733Y-101841264D01*
X104945885Y-101586232D01*
X104753349Y-101353496D01*
X104533162Y-101146726D01*
X104533159Y-101146724D01*
X104533153Y-101146719D01*
X104288806Y-100969191D01*
X104288799Y-100969186D01*
X104288795Y-100969184D01*
X104024104Y-100823668D01*
X104024101Y-100823666D01*
X104024096Y-100823664D01*
X104024095Y-100823663D01*
X103743265Y-100712475D01*
X103743262Y-100712474D01*
X103450695Y-100637357D01*
X103151036Y-100599500D01*
X103151027Y-100599500D01*
X102848973Y-100599500D01*
X102848963Y-100599500D01*
X102549304Y-100637357D01*
X102256737Y-100712474D01*
X102256734Y-100712475D01*
X101975904Y-100823663D01*
X101975903Y-100823664D01*
X101711205Y-100969184D01*
X101711193Y-100969191D01*
X101466846Y-101146719D01*
X101466836Y-101146727D01*
X101246652Y-101353494D01*
X101054111Y-101586236D01*
X100892268Y-101841261D01*
X100892265Y-101841267D01*
X100763661Y-102114563D01*
X100763659Y-102114568D01*
X100670317Y-102401845D01*
X100669830Y-102403743D01*
X100669545Y-102404220D01*
X100669115Y-102405546D01*
X100668814Y-102405448D01*
X100634087Y-102463779D01*
X100571561Y-102494960D01*
X100502103Y-102487387D01*
X100447766Y-102443464D01*
X100425801Y-102377137D01*
X100425737Y-102371455D01*
X100448550Y-100442543D01*
X100469026Y-100375744D01*
X100522367Y-100330616D01*
X100572551Y-100320012D01*
X199625451Y-100329987D01*
G37*
%TD.AperFunction*%
%TD*%
%TA.AperFunction,Conductor*%
%TO.N,LED_OUT*%
G36*
X192184300Y-103109685D02*
G01*
X192230055Y-103162489D01*
X192241255Y-103212732D01*
X192428723Y-121545134D01*
X192409724Y-121612371D01*
X192357391Y-121658664D01*
X192305128Y-121670401D01*
X152155266Y-121799596D01*
X152088164Y-121780128D01*
X152042239Y-121727471D01*
X152030870Y-121674735D01*
X152030982Y-121658664D01*
X152159144Y-103213136D01*
X152179294Y-103146237D01*
X152232414Y-103100850D01*
X152283141Y-103090000D01*
X192117261Y-103090000D01*
X192184300Y-103109685D01*
G37*
%TD.AperFunction*%
%TD*%
M02*
