M48
; DRILL file {KiCad 7.0.10-1.fc38} date Mon 26 Feb 2024 14:13:29 GMT
; FORMAT={-:-/ absolute / inch / decimal}
; #@! TF.CreationDate,2024-02-26T14:13:29+00:00
; #@! TF.GenerationSoftware,Kicad,Pcbnew,7.0.10-1.fc38
; #@! TF.FileFunction,Plated,1,2,PTH
FMAT,2
INCH
; #@! TA.AperFunction,Plated,PTH,ComponentDrill
T1C0.0010
; #@! TA.AperFunction,Plated,PTH,ViaDrill
T2C0.0118
; #@! TA.AperFunction,Plated,PTH,ViaDrill
T3C0.0197
; #@! TA.AperFunction,Plated,PTH,ComponentDrill
T4C0.0200
; #@! TA.AperFunction,Plated,PTH,ComponentDrill
T5C0.0295
; #@! TA.AperFunction,Plated,PTH,ComponentDrill
T6C0.0866
%
G90
G05
T1
X4.2205Y-4.024
X4.2205Y-4.1736
X4.5606Y-4.024
X4.5606Y-4.1736
T2
X5.4988Y-4.2894
X5.5425Y-4.2894
T3
X4.1Y-4.2972
X4.2689Y-4.328
X4.3031Y-4.5579
X4.4307Y-4.685
X4.5138Y-4.5606
X4.6638Y-4.311
X4.8894Y-4.178
X5.2776Y-4.2079
X5.2783Y-4.2811
X5.5205Y-4.1567
X5.6508Y-4.4028
X5.7551Y-4.4067
X5.9213Y-4.1075
X5.9728Y-4.7008
X6.2902Y-4.6224
X6.4394Y-4.5079
X6.4591Y-4.3453
X6.465Y-4.2276
X6.5311Y-4.6028
X6.5992Y-4.374
X6.9457Y-4.5969
X7.0209Y-4.4535
X7.0283Y-4.2126
X7.0752Y-4.324
X7.0961Y-4.6075
X7.2106Y-4.3315
X7.2335Y-4.4626
X7.2528Y-4.2276
X7.2634Y-4.5894
T4
X4.5606Y-4.024
T5
X4.0906Y-4.4441
X4.0906Y-4.5228
X4.9303Y-4.6776
X5.0091Y-4.6776
T6
X4.0551Y-4.0551
X4.0551Y-4.8031
X7.7559Y-4.0551
X7.7559Y-4.8031
M30
