%TF.GenerationSoftware,KiCad,Pcbnew,7.0.10-1.fc38*%
%TF.CreationDate,2024-02-26T14:13:32+00:00*%
%TF.ProjectId,desk-light,6465736b-2d6c-4696-9768-742e6b696361,rev?*%
%TF.SameCoordinates,Original*%
%TF.FileFunction,Legend,Bot*%
%TF.FilePolarity,Positive*%
%FSLAX46Y46*%
G04 Gerber Fmt 4.6, Leading zero omitted, Abs format (unit mm)*
G04 Created by KiCad (PCBNEW 7.0.10-1.fc38) date 2024-02-26 14:13:32*
%MOMM*%
%LPD*%
G01*
G04 APERTURE LIST*
%ADD10C,0.100000*%
%ADD11C,0.508000*%
G04 APERTURE END LIST*
D10*
X158622580Y-112278094D02*
X159622580Y-112278094D01*
X159622580Y-112278094D02*
X159622580Y-112039999D01*
X159622580Y-112039999D02*
X159574961Y-111897142D01*
X159574961Y-111897142D02*
X159479723Y-111801904D01*
X159479723Y-111801904D02*
X159384485Y-111754285D01*
X159384485Y-111754285D02*
X159194009Y-111706666D01*
X159194009Y-111706666D02*
X159051152Y-111706666D01*
X159051152Y-111706666D02*
X158860676Y-111754285D01*
X158860676Y-111754285D02*
X158765438Y-111801904D01*
X158765438Y-111801904D02*
X158670200Y-111897142D01*
X158670200Y-111897142D02*
X158622580Y-112039999D01*
X158622580Y-112039999D02*
X158622580Y-112278094D01*
X159289247Y-110849523D02*
X158622580Y-110849523D01*
X159670200Y-111087618D02*
X158955914Y-111325713D01*
X158955914Y-111325713D02*
X158955914Y-110706666D01*
X175322580Y-112488094D02*
X176322580Y-112488094D01*
X176322580Y-112488094D02*
X176322580Y-112249999D01*
X176322580Y-112249999D02*
X176274961Y-112107142D01*
X176274961Y-112107142D02*
X176179723Y-112011904D01*
X176179723Y-112011904D02*
X176084485Y-111964285D01*
X176084485Y-111964285D02*
X175894009Y-111916666D01*
X175894009Y-111916666D02*
X175751152Y-111916666D01*
X175751152Y-111916666D02*
X175560676Y-111964285D01*
X175560676Y-111964285D02*
X175465438Y-112011904D01*
X175465438Y-112011904D02*
X175370200Y-112107142D01*
X175370200Y-112107142D02*
X175322580Y-112249999D01*
X175322580Y-112249999D02*
X175322580Y-112488094D01*
X176322580Y-111583332D02*
X176322580Y-110964285D01*
X176322580Y-110964285D02*
X175941628Y-111297618D01*
X175941628Y-111297618D02*
X175941628Y-111154761D01*
X175941628Y-111154761D02*
X175894009Y-111059523D01*
X175894009Y-111059523D02*
X175846390Y-111011904D01*
X175846390Y-111011904D02*
X175751152Y-110964285D01*
X175751152Y-110964285D02*
X175513057Y-110964285D01*
X175513057Y-110964285D02*
X175417819Y-111011904D01*
X175417819Y-111011904D02*
X175370200Y-111059523D01*
X175370200Y-111059523D02*
X175322580Y-111154761D01*
X175322580Y-111154761D02*
X175322580Y-111440475D01*
X175322580Y-111440475D02*
X175370200Y-111535713D01*
X175370200Y-111535713D02*
X175417819Y-111583332D01*
X192232580Y-112548094D02*
X193232580Y-112548094D01*
X193232580Y-112548094D02*
X193232580Y-112309999D01*
X193232580Y-112309999D02*
X193184961Y-112167142D01*
X193184961Y-112167142D02*
X193089723Y-112071904D01*
X193089723Y-112071904D02*
X192994485Y-112024285D01*
X192994485Y-112024285D02*
X192804009Y-111976666D01*
X192804009Y-111976666D02*
X192661152Y-111976666D01*
X192661152Y-111976666D02*
X192470676Y-112024285D01*
X192470676Y-112024285D02*
X192375438Y-112071904D01*
X192375438Y-112071904D02*
X192280200Y-112167142D01*
X192280200Y-112167142D02*
X192232580Y-112309999D01*
X192232580Y-112309999D02*
X192232580Y-112548094D01*
X193137342Y-111595713D02*
X193184961Y-111548094D01*
X193184961Y-111548094D02*
X193232580Y-111452856D01*
X193232580Y-111452856D02*
X193232580Y-111214761D01*
X193232580Y-111214761D02*
X193184961Y-111119523D01*
X193184961Y-111119523D02*
X193137342Y-111071904D01*
X193137342Y-111071904D02*
X193042104Y-111024285D01*
X193042104Y-111024285D02*
X192946866Y-111024285D01*
X192946866Y-111024285D02*
X192804009Y-111071904D01*
X192804009Y-111071904D02*
X192232580Y-111643332D01*
X192232580Y-111643332D02*
X192232580Y-111024285D01*
%TO.C,D4*%
X156100000Y-109720403D02*
X155180000Y-109720403D01*
X155640000Y-109720403D02*
X156040000Y-108770403D01*
X156040000Y-108770403D02*
X155250000Y-108770403D01*
X155250000Y-108770403D02*
X155640000Y-109720403D01*
X157340000Y-113430403D02*
X153940000Y-113430403D01*
X153940000Y-113430403D02*
X153940000Y-110030403D01*
X153940000Y-110030403D02*
X157340000Y-110030403D01*
X157340000Y-110030403D02*
X157340000Y-113430403D01*
%TO.C,D3*%
X172965000Y-109720403D02*
X172045000Y-109720403D01*
X172505000Y-109720403D02*
X172905000Y-108770403D01*
X172905000Y-108770403D02*
X172115000Y-108770403D01*
X172115000Y-108770403D02*
X172505000Y-109720403D01*
X174205000Y-113430403D02*
X170805000Y-113430403D01*
X170805000Y-113430403D02*
X170805000Y-110030403D01*
X170805000Y-110030403D02*
X174205000Y-110030403D01*
X174205000Y-110030403D02*
X174205000Y-113430403D01*
%TO.C,D2*%
X189830000Y-109720403D02*
X188910000Y-109720403D01*
X189370000Y-109720403D02*
X189770000Y-108770403D01*
X189770000Y-108770403D02*
X188980000Y-108770403D01*
X188980000Y-108770403D02*
X189370000Y-109720403D01*
X191070000Y-113430403D02*
X187670000Y-113430403D01*
X187670000Y-113430403D02*
X187670000Y-110030403D01*
X187670000Y-110030403D02*
X191070000Y-110030403D01*
X191070000Y-110030403D02*
X191070000Y-113430403D01*
D11*
%TO.C,J1*%
X118276398Y-106570000D02*
G75*
G03*
X117514398Y-106570000I-381000J0D01*
G01*
X117514398Y-106570000D02*
G75*
G03*
X118276398Y-106570000I381000J0D01*
G01*
%TD*%
M02*
